<?xml version="1.0" encoding="UTF-8" standalone="no"?>
<!DOCTYPE svg PUBLIC "-//W3C//DTD SVG 1.1//EN"
 "http://www.w3.org/Graphics/SVG/1.1/DTD/svg11.dtd">
<!-- Generated by graphviz version 2.43.0 (0)
 -->
<!-- Title: G Pages: 1 -->
<svg width="1710pt" height="1441pt"
 viewBox="0.00 0.00 1710.00 1440.50" xmlns="http://www.w3.org/2000/svg" xmlns:xlink="http://www.w3.org/1999/xlink">
<g id="graph0" class="graph" transform="scale(1 1) rotate(0) translate(4 1436.5)">
<title>G</title>
<polygon fill="white" stroke="transparent" points="-4,4 -4,-1436.5 1706,-1436.5 1706,4 -4,4"/>
<g id="clust2" class="cluster">
<title>cluster_c3555315</title>
<polygon fill="none" stroke="black" stroke-dasharray="1,5" points="64.5,-114.5 64.5,-1424.5 1694,-1424.5 1694,-114.5 64.5,-114.5"/>
<text text-anchor="middle" x="879.25" y="-1409.3" font-family="Times,serif" font-size="14.00">File: g5_tools</text>
</g>
<g id="clust3" class="cluster">
<title>cluster_00481bdb</title>
<polygon fill="none" stroke="black" stroke-dasharray="1,5" points="761.5,-122.5 761.5,-197.5 951.5,-197.5 951.5,-122.5 761.5,-122.5"/>
<text text-anchor="middle" x="856.5" y="-182.3" font-family="Times,serif" font-size="14.00">Class: _StreamToLogger</text>
</g>
<g id="clust4" class="cluster">
<title>cluster_f1444849</title>
<polygon fill="none" stroke="black" stroke-dasharray="1,5" points="434.5,-1019.5 434.5,-1310.5 1265.5,-1310.5 1265.5,-1019.5 434.5,-1019.5"/>
<text text-anchor="middle" x="850" y="-1295.3" font-family="Times,serif" font-size="14.00">Class: coha</text>
</g>
<g id="clust5" class="cluster">
<title>cluster_f4259360</title>
<polygon fill="none" stroke="black" stroke-dasharray="1,5" points="382,-514.5 382,-913.5 1291,-913.5 1291,-514.5 382,-514.5"/>
<text text-anchor="middle" x="836.5" y="-898.3" font-family="Times,serif" font-size="14.00">Class: bert</text>
</g>
<g id="clust6" class="cluster">
<title>cluster_63dccf6e</title>
<polygon fill="none" stroke="black" stroke-dasharray="1,5" points="74,-1318.5 74,-1393.5 673,-1393.5 673,-1318.5 74,-1318.5"/>
<text text-anchor="middle" x="373.5" y="-1378.3" font-family="Times,serif" font-size="14.00">Class: eval</text>
</g>
<g id="clust7" class="cluster">
<title>cluster_f3244bd6</title>
<polygon fill="none" stroke="black" stroke-dasharray="1,5" points="73.5,-425.5 73.5,-500.5 253.5,-500.5 253.5,-425.5 73.5,-425.5"/>
<text text-anchor="middle" x="163.5" y="-485.3" font-family="Times,serif" font-size="14.00">Class: run</text>
</g>
<g id="clust8" class="cluster">
<title>cluster_4ca0de42</title>
<polygon fill="none" stroke="black" stroke-dasharray="1,5" points="759,-205.5 759,-334.5 1502,-334.5 1502,-205.5 759,-205.5"/>
<text text-anchor="middle" x="1130.5" y="-319.3" font-family="Times,serif" font-size="14.00">Class: wn</text>
</g>
<!-- Legend -->
<g id="node1" class="node">
<title>Legend</title>
<polygon fill="none" stroke="black" points="1.5,-88.5 1.5,-105.5 326.5,-105.5 326.5,-88.5 1.5,-88.5"/>
<text text-anchor="start" x="98" y="-93.3" font-family="Times,serif" font-size="14.00">Code2flow Legend</text>
<polygon fill="none" stroke="black" points="1.5,-0.5 1.5,-88.5 326.5,-88.5 326.5,-0.5 1.5,-0.5"/>
<polygon fill="none" stroke="black" points="3.5,-65.5 3.5,-86.5 274.5,-86.5 274.5,-65.5 3.5,-65.5"/>
<text text-anchor="start" x="79" y="-72.3" font-family="Times,serif" font-size="14.00">Regular function</text>
<polygon fill="#cccccc" stroke="transparent" points="274.5,-65.5 274.5,-86.5 324.5,-86.5 324.5,-65.5 274.5,-65.5"/>
<polygon fill="none" stroke="black" points="274.5,-65.5 274.5,-86.5 324.5,-86.5 324.5,-65.5 274.5,-65.5"/>
<polygon fill="none" stroke="black" points="3.5,-44.5 3.5,-65.5 274.5,-65.5 274.5,-44.5 3.5,-44.5"/>
<text text-anchor="start" x="17" y="-51.3" font-family="Times,serif" font-size="14.00">Trunk function (nothing calls this)</text>
<polygon fill="#966f33" stroke="transparent" points="274.5,-44.5 274.5,-65.5 324.5,-65.5 324.5,-44.5 274.5,-44.5"/>
<polygon fill="none" stroke="black" points="274.5,-44.5 274.5,-65.5 324.5,-65.5 324.5,-44.5 274.5,-44.5"/>
<polygon fill="none" stroke="black" points="3.5,-23.5 3.5,-44.5 274.5,-44.5 274.5,-23.5 3.5,-23.5"/>
<text text-anchor="start" x="6.5" y="-30.3" font-family="Times,serif" font-size="14.00">Leaf function (this calls nothing else)</text>
<polygon fill="#6db33f" stroke="transparent" points="274.5,-23.5 274.5,-44.5 324.5,-44.5 324.5,-23.5 274.5,-23.5"/>
<polygon fill="none" stroke="black" points="274.5,-23.5 274.5,-44.5 324.5,-44.5 324.5,-23.5 274.5,-23.5"/>
<polygon fill="none" stroke="black" points="3.5,-2.5 3.5,-23.5 274.5,-23.5 274.5,-2.5 3.5,-2.5"/>
<text text-anchor="start" x="92.5" y="-9.3" font-family="Times,serif" font-size="14.00">Function call</text>
<polygon fill="none" stroke="black" points="274.5,-2.5 274.5,-23.5 324.5,-23.5 324.5,-2.5 274.5,-2.5"/>
<text text-anchor="start" x="293" y="-9.3" font-family="Times,serif" font-size="14.00">→</text>
<polygon fill="none" stroke="black" points="2.5,-1.5 2.5,-87.5 325.5,-87.5 325.5,-1.5 2.5,-1.5"/>
<polygon fill="none" stroke="black" points="0,0 0,-107 327,-107 327,0 0,0"/>
</g>
<!-- node_ffc47afe -->
<g id="node2" class="node">
<title>node_ffc47afe</title>
<path fill="#966f33" stroke="black" d="M551.5,-266.5C551.5,-266.5 476.5,-266.5 476.5,-266.5 470.5,-266.5 464.5,-260.5 464.5,-254.5 464.5,-254.5 464.5,-242.5 464.5,-242.5 464.5,-236.5 470.5,-230.5 476.5,-230.5 476.5,-230.5 551.5,-230.5 551.5,-230.5 557.5,-230.5 563.5,-236.5 563.5,-242.5 563.5,-242.5 563.5,-254.5 563.5,-254.5 563.5,-260.5 557.5,-266.5 551.5,-266.5"/>
<text text-anchor="middle" x="514" y="-244.8" font-family="Times,serif" font-size="14.00">0: (global)()</text>
</g>
<!-- node_50e5edfb -->
<g id="node3" class="node">
<title>node_50e5edfb</title>
<path fill="#6db33f" stroke="black" d="M896.5,-166.5C896.5,-166.5 815.5,-166.5 815.5,-166.5 809.5,-166.5 803.5,-160.5 803.5,-154.5 803.5,-154.5 803.5,-142.5 803.5,-142.5 803.5,-136.5 809.5,-130.5 815.5,-130.5 815.5,-130.5 896.5,-130.5 896.5,-130.5 902.5,-130.5 908.5,-136.5 908.5,-142.5 908.5,-142.5 908.5,-154.5 908.5,-154.5 908.5,-160.5 902.5,-166.5 896.5,-166.5"/>
<text text-anchor="middle" x="856" y="-144.8" font-family="Times,serif" font-size="14.00">75: __init__()</text>
</g>
<!-- node_ffc47afe&#45;&gt;node_50e5edfb -->
<g id="edge1" class="edge">
<title>node_ffc47afe&#45;&gt;node_50e5edfb</title>
<path fill="none" stroke="#d55e00" stroke-width="2" d="M563.78,-240C596.39,-240 633,-240 633,-240 633,-240 633,-162.5 633,-162.5 633,-162.5 793.43,-162.5 793.43,-162.5"/>
<polygon fill="#d55e00" stroke="#d55e00" stroke-width="2" points="793.43,-166 803.43,-162.5 793.43,-159 793.43,-166"/>
</g>
<!-- node_f2bdf907 -->
<g id="node10" class="node">
<title>node_f2bdf907</title>
<path fill="#cccccc" stroke="black" d="M901,-405.5C901,-405.5 811,-405.5 811,-405.5 805,-405.5 799,-399.5 799,-393.5 799,-393.5 799,-381.5 799,-381.5 799,-375.5 805,-369.5 811,-369.5 811,-369.5 901,-369.5 901,-369.5 907,-369.5 913,-375.5 913,-381.5 913,-381.5 913,-393.5 913,-393.5 913,-399.5 907,-405.5 901,-405.5"/>
<text text-anchor="middle" x="856" y="-383.8" font-family="Times,serif" font-size="14.00">1237: _main()</text>
</g>
<!-- node_ffc47afe&#45;&gt;node_f2bdf907 -->
<g id="edge3" class="edge">
<title>node_ffc47afe&#45;&gt;node_f2bdf907</title>
<path fill="none" stroke="#d55e00" stroke-width="2" d="M514,-266.67C514,-304.35 514,-387.5 514,-387.5 514,-387.5 788.76,-387.5 788.76,-387.5"/>
<polygon fill="#d55e00" stroke="#d55e00" stroke-width="2" points="788.76,-391 798.76,-387.5 788.76,-384 788.76,-391"/>
</g>
<!-- node_0b3384af -->
<g id="node4" class="node">
<title>node_0b3384af</title>
<path fill="#cccccc" stroke="black" d="M1255,-432.5C1255,-432.5 1075,-432.5 1075,-432.5 1069,-432.5 1063,-426.5 1063,-420.5 1063,-420.5 1063,-408.5 1063,-408.5 1063,-402.5 1069,-396.5 1075,-396.5 1075,-396.5 1255,-396.5 1255,-396.5 1261,-396.5 1267,-402.5 1267,-408.5 1267,-408.5 1267,-420.5 1267,-420.5 1267,-426.5 1261,-432.5 1255,-432.5"/>
<text text-anchor="middle" x="1165" y="-410.8" font-family="Times,serif" font-size="14.00">1222: _do_initial_logging()</text>
</g>
<!-- node_3428feae -->
<g id="node12" class="node">
<title>node_3428feae</title>
<path fill="#cccccc" stroke="black" d="M1465.5,-875.5C1465.5,-875.5 1358.5,-875.5 1358.5,-875.5 1352.5,-875.5 1346.5,-869.5 1346.5,-863.5 1346.5,-863.5 1346.5,-851.5 1346.5,-851.5 1346.5,-845.5 1352.5,-839.5 1358.5,-839.5 1358.5,-839.5 1465.5,-839.5 1465.5,-839.5 1471.5,-839.5 1477.5,-845.5 1477.5,-851.5 1477.5,-851.5 1477.5,-863.5 1477.5,-863.5 1477.5,-869.5 1471.5,-875.5 1465.5,-875.5"/>
<text text-anchor="middle" x="1412" y="-853.8" font-family="Times,serif" font-size="14.00">122: _run_cmd()</text>
</g>
<!-- node_0b3384af&#45;&gt;node_3428feae -->
<g id="edge4" class="edge">
<title>node_0b3384af&#45;&gt;node_3428feae</title>
<path fill="none" stroke="#cc79a7" stroke-width="2" d="M1267.03,-414.5C1286.53,-414.5 1301,-414.5 1301,-414.5 1301,-414.5 1301,-843 1301,-843 1301,-843 1336.47,-843 1336.47,-843"/>
<polygon fill="#cc79a7" stroke="#cc79a7" stroke-width="2" points="1336.47,-846.5 1346.47,-843 1336.47,-839.5 1336.47,-846.5"/>
</g>
<!-- node_0cd38866 -->
<g id="node5" class="node">
<title>node_0cd38866</title>
<path fill="#cccccc" stroke="black" d="M954.5,-506.5C954.5,-506.5 757.5,-506.5 757.5,-506.5 751.5,-506.5 745.5,-500.5 745.5,-494.5 745.5,-494.5 745.5,-482.5 745.5,-482.5 745.5,-476.5 751.5,-470.5 757.5,-470.5 757.5,-470.5 954.5,-470.5 954.5,-470.5 960.5,-470.5 966.5,-476.5 966.5,-482.5 966.5,-482.5 966.5,-494.5 966.5,-494.5 966.5,-500.5 960.5,-506.5 954.5,-506.5"/>
<text text-anchor="middle" x="856" y="-484.8" font-family="Times,serif" font-size="14.00">241: _download_file_maybe()</text>
</g>
<!-- node_ddef64c1 -->
<g id="node6" class="node">
<title>node_ddef64c1</title>
<path fill="#cccccc" stroke="black" d="M1241,-486.5C1241,-486.5 1089,-486.5 1089,-486.5 1083,-486.5 1077,-480.5 1077,-474.5 1077,-474.5 1077,-462.5 1077,-462.5 1077,-456.5 1083,-450.5 1089,-450.5 1089,-450.5 1241,-450.5 1241,-450.5 1247,-450.5 1253,-456.5 1253,-462.5 1253,-462.5 1253,-474.5 1253,-474.5 1253,-480.5 1247,-486.5 1241,-486.5"/>
<text text-anchor="middle" x="1165" y="-464.8" font-family="Times,serif" font-size="14.00">226: _file_info_digest()</text>
</g>
<!-- node_0cd38866&#45;&gt;node_ddef64c1 -->
<g id="edge5" class="edge">
<title>node_0cd38866&#45;&gt;node_ddef64c1</title>
<path fill="none" stroke="#d55e00" stroke-width="2" d="M966.68,-478.5C966.68,-478.5 1066.87,-478.5 1066.87,-478.5"/>
<polygon fill="#d55e00" stroke="#d55e00" stroke-width="2" points="1066.87,-482 1076.87,-478.5 1066.87,-475 1066.87,-482"/>
</g>
<!-- node_0cd38866&#45;&gt;node_3428feae -->
<g id="edge6" class="edge">
<title>node_0cd38866&#45;&gt;node_3428feae</title>
<path fill="none" stroke="#d55e00" stroke-width="2" d="M966.76,-496.5C1134.59,-496.5 1434,-496.5 1434,-496.5 1434,-496.5 1434,-829.1 1434,-829.1"/>
<polygon fill="#d55e00" stroke="#d55e00" stroke-width="2" points="1430.5,-829.1 1434,-839.1 1437.5,-829.1 1430.5,-829.1"/>
</g>
<!-- node_a401301d -->
<g id="node9" class="node">
<title>node_a401301d</title>
<path fill="#cccccc" stroke="black" d="M1493,-486.5C1493,-486.5 1331,-486.5 1331,-486.5 1325,-486.5 1319,-480.5 1319,-474.5 1319,-474.5 1319,-462.5 1319,-462.5 1319,-456.5 1325,-450.5 1331,-450.5 1331,-450.5 1493,-450.5 1493,-450.5 1499,-450.5 1505,-456.5 1505,-462.5 1505,-462.5 1505,-474.5 1505,-474.5 1505,-480.5 1499,-486.5 1493,-486.5"/>
<text text-anchor="middle" x="1412" y="-464.8" font-family="Times,serif" font-size="14.00">209: _hash_file_maybe()</text>
</g>
<!-- node_ddef64c1&#45;&gt;node_a401301d -->
<g id="edge7" class="edge">
<title>node_ddef64c1&#45;&gt;node_a401301d</title>
<path fill="none" stroke="#e69f00" stroke-width="2" d="M1253.13,-468.5C1253.13,-468.5 1308.89,-468.5 1308.89,-468.5"/>
<polygon fill="#e69f00" stroke="#e69f00" stroke-width="2" points="1308.89,-472 1318.89,-468.5 1308.89,-465 1308.89,-472"/>
</g>
<!-- node_9bcb73b0 -->
<g id="node7" class="node">
<title>node_9bcb73b0</title>
<path fill="#6db33f" stroke="black" d="M616,-212.5C616,-212.5 412,-212.5 412,-212.5 406,-212.5 400,-206.5 400,-200.5 400,-200.5 400,-188.5 400,-188.5 400,-182.5 406,-176.5 412,-176.5 412,-176.5 616,-176.5 616,-176.5 622,-176.5 628,-182.5 628,-188.5 628,-188.5 628,-200.5 628,-200.5 628,-206.5 622,-212.5 616,-212.5"/>
<text text-anchor="middle" x="514" y="-190.8" font-family="Times,serif" font-size="14.00">300: _freeze_hashdeep_bare()</text>
</g>
<!-- node_2b70f46b -->
<g id="node8" class="node">
<title>node_2b70f46b</title>
<path fill="#6db33f" stroke="black" d="M609.5,-158.5C609.5,-158.5 418.5,-158.5 418.5,-158.5 412.5,-158.5 406.5,-152.5 406.5,-146.5 406.5,-146.5 406.5,-134.5 406.5,-134.5 406.5,-128.5 412.5,-122.5 418.5,-122.5 418.5,-122.5 609.5,-122.5 609.5,-122.5 615.5,-122.5 621.5,-128.5 621.5,-134.5 621.5,-134.5 621.5,-146.5 621.5,-146.5 621.5,-152.5 615.5,-158.5 609.5,-158.5"/>
<text text-anchor="middle" x="514" y="-136.8" font-family="Times,serif" font-size="14.00">291: _freeze_hashdeep_rel()</text>
</g>
<!-- node_089ef342 -->
<g id="node41" class="node">
<title>node_089ef342</title>
<path fill="#6db33f" stroke="black" d="M1674,-486.5C1674,-486.5 1553,-486.5 1553,-486.5 1547,-486.5 1541,-480.5 1541,-474.5 1541,-474.5 1541,-462.5 1541,-462.5 1541,-456.5 1547,-450.5 1553,-450.5 1553,-450.5 1674,-450.5 1674,-450.5 1680,-450.5 1686,-456.5 1686,-462.5 1686,-462.5 1686,-474.5 1686,-474.5 1686,-480.5 1680,-486.5 1674,-486.5"/>
<text text-anchor="middle" x="1613.5" y="-464.8" font-family="Times,serif" font-size="14.00">199: sha256sum()</text>
</g>
<!-- node_a401301d&#45;&gt;node_089ef342 -->
<g id="edge8" class="edge">
<title>node_a401301d&#45;&gt;node_089ef342</title>
<path fill="none" stroke="#0072b2" stroke-width="2" d="M1505.08,-468.5C1505.08,-468.5 1530.72,-468.5 1530.72,-468.5"/>
<polygon fill="#0072b2" stroke="#0072b2" stroke-width="2" points="1530.72,-472 1540.72,-468.5 1530.72,-465 1530.72,-472"/>
</g>
<!-- node_f2bdf907&#45;&gt;node_0b3384af -->
<g id="edge9" class="edge">
<title>node_f2bdf907&#45;&gt;node_0b3384af</title>
<path fill="none" stroke="#cc79a7" stroke-width="2" d="M913.04,-401C913.04,-401 1052.97,-401 1052.97,-401"/>
<polygon fill="#cc79a7" stroke="#cc79a7" stroke-width="2" points="1052.97,-404.5 1062.97,-401 1052.97,-397.5 1052.97,-404.5"/>
</g>
<!-- node_7943e253 -->
<g id="node11" class="node">
<title>node_7943e253</title>
<path fill="#6db33f" stroke="black" d="M1668.5,-875.5C1668.5,-875.5 1558.5,-875.5 1558.5,-875.5 1552.5,-875.5 1546.5,-869.5 1546.5,-863.5 1546.5,-863.5 1546.5,-851.5 1546.5,-851.5 1546.5,-845.5 1552.5,-839.5 1558.5,-839.5 1558.5,-839.5 1668.5,-839.5 1668.5,-839.5 1674.5,-839.5 1680.5,-845.5 1680.5,-851.5 1680.5,-851.5 1680.5,-863.5 1680.5,-863.5 1680.5,-869.5 1674.5,-875.5 1668.5,-875.5"/>
<text text-anchor="middle" x="1613.5" y="-853.8" font-family="Times,serif" font-size="14.00">109: _print_log()</text>
</g>
<!-- node_3428feae&#45;&gt;node_7943e253 -->
<g id="edge10" class="edge">
<title>node_3428feae&#45;&gt;node_7943e253</title>
<path fill="none" stroke="#d55e00" stroke-width="2" d="M1477.7,-857.5C1477.7,-857.5 1536.16,-857.5 1536.16,-857.5"/>
<polygon fill="#d55e00" stroke="#d55e00" stroke-width="2" points="1536.16,-861 1546.16,-857.5 1536.16,-854 1536.16,-861"/>
</g>
<!-- node_838560ce -->
<g id="node13" class="node">
<title>node_838560ce</title>
<path fill="#cccccc" stroke="black" d="M901,-983.5C901,-983.5 811,-983.5 811,-983.5 805,-983.5 799,-977.5 799,-971.5 799,-971.5 799,-959.5 799,-959.5 799,-953.5 805,-947.5 811,-947.5 811,-947.5 901,-947.5 901,-947.5 907,-947.5 913,-953.5 913,-959.5 913,-959.5 913,-971.5 913,-971.5 913,-977.5 907,-983.5 901,-983.5"/>
<text text-anchor="middle" x="856" y="-961.8" font-family="Times,serif" font-size="14.00">284: _stamp()</text>
</g>
<!-- node_5f11abec -->
<g id="node14" class="node">
<title>node_5f11abec</title>
<path fill="#6db33f" stroke="black" d="M1218,-1011.5C1218,-1011.5 1112,-1011.5 1112,-1011.5 1106,-1011.5 1100,-1005.5 1100,-999.5 1100,-999.5 1100,-987.5 1100,-987.5 1100,-981.5 1106,-975.5 1112,-975.5 1112,-975.5 1218,-975.5 1218,-975.5 1224,-975.5 1230,-981.5 1230,-987.5 1230,-987.5 1230,-999.5 1230,-999.5 1230,-1005.5 1224,-1011.5 1218,-1011.5"/>
<text text-anchor="middle" x="1165" y="-989.8" font-family="Times,serif" font-size="14.00">269: _token_id()</text>
</g>
<!-- node_838560ce&#45;&gt;node_5f11abec -->
<g id="edge12" class="edge">
<title>node_838560ce&#45;&gt;node_5f11abec</title>
<path fill="none" stroke="#d55e00" stroke-width="2" d="M913.04,-979.5C913.04,-979.5 1089.74,-979.5 1089.74,-979.5"/>
<polygon fill="#d55e00" stroke="#d55e00" stroke-width="2" points="1089.74,-983 1099.74,-979.5 1089.74,-976 1089.74,-983"/>
</g>
<!-- node_71627cf9 -->
<g id="node15" class="node">
<title>node_71627cf9</title>
<path fill="#6db33f" stroke="black" d="M1241.5,-378.5C1241.5,-378.5 1088.5,-378.5 1088.5,-378.5 1082.5,-378.5 1076.5,-372.5 1076.5,-366.5 1076.5,-366.5 1076.5,-354.5 1076.5,-354.5 1076.5,-348.5 1082.5,-342.5 1088.5,-342.5 1088.5,-342.5 1241.5,-342.5 1241.5,-342.5 1247.5,-342.5 1253.5,-348.5 1253.5,-354.5 1253.5,-354.5 1253.5,-366.5 1253.5,-366.5 1253.5,-372.5 1247.5,-378.5 1241.5,-378.5"/>
<text text-anchor="middle" x="1165" y="-356.8" font-family="Times,serif" font-size="14.00">99: _write_list_to_file()</text>
</g>
<!-- node_6264e7fa -->
<g id="node16" class="node">
<title>node_6264e7fa</title>
<path fill="#6db33f" stroke="black" d="M604.5,-774.5C604.5,-774.5 423.5,-774.5 423.5,-774.5 417.5,-774.5 411.5,-768.5 411.5,-762.5 411.5,-762.5 411.5,-750.5 411.5,-750.5 411.5,-744.5 417.5,-738.5 423.5,-738.5 423.5,-738.5 604.5,-738.5 604.5,-738.5 610.5,-738.5 616.5,-744.5 616.5,-750.5 616.5,-750.5 616.5,-762.5 616.5,-762.5 616.5,-768.5 610.5,-774.5 604.5,-774.5"/>
<text text-anchor="middle" x="514" y="-752.8" font-family="Times,serif" font-size="14.00">638: _get_gulordava_dict()</text>
</g>
<!-- node_55d500c3 -->
<g id="node17" class="node">
<title>node_55d500c3</title>
<path fill="#cccccc" stroke="black" d="M989.5,-614.5C989.5,-614.5 722.5,-614.5 722.5,-614.5 716.5,-614.5 710.5,-608.5 710.5,-602.5 710.5,-602.5 710.5,-590.5 710.5,-590.5 710.5,-584.5 716.5,-578.5 722.5,-578.5 722.5,-578.5 989.5,-578.5 989.5,-578.5 995.5,-578.5 1001.5,-584.5 1001.5,-590.5 1001.5,-590.5 1001.5,-602.5 1001.5,-602.5 1001.5,-608.5 995.5,-614.5 989.5,-614.5"/>
<text text-anchor="middle" x="856" y="-592.8" font-family="Times,serif" font-size="14.00">669: _get_wordlist_for_extract_query()</text>
</g>
<!-- node_afe171a5 -->
<g id="node19" class="node">
<title>node_afe171a5</title>
<path fill="#6db33f" stroke="black" d="M1271,-587.5C1271,-587.5 1059,-587.5 1059,-587.5 1053,-587.5 1047,-581.5 1047,-575.5 1047,-575.5 1047,-563.5 1047,-563.5 1047,-557.5 1053,-551.5 1059,-551.5 1059,-551.5 1271,-551.5 1271,-551.5 1277,-551.5 1283,-557.5 1283,-563.5 1283,-563.5 1283,-575.5 1283,-575.5 1283,-581.5 1277,-587.5 1271,-587.5"/>
<text text-anchor="middle" x="1165" y="-565.8" font-family="Times,serif" font-size="14.00">597: _read_wordlist_from_file()</text>
</g>
<!-- node_55d500c3&#45;&gt;node_afe171a5 -->
<g id="edge13" class="edge">
<title>node_55d500c3&#45;&gt;node_afe171a5</title>
<path fill="none" stroke="#009e73" stroke-width="2" d="M1001.9,-583C1001.9,-583 1036.66,-583 1036.66,-583"/>
<polygon fill="#009e73" stroke="#009e73" stroke-width="2" points="1036.66,-586.5 1046.66,-583 1036.66,-579.5 1036.66,-586.5"/>
</g>
<!-- node_e168e441 -->
<g id="node18" class="node">
<title>node_e168e441</title>
<path fill="#6db33f" stroke="black" d="M999,-560.5C999,-560.5 713,-560.5 713,-560.5 707,-560.5 701,-554.5 701,-548.5 701,-548.5 701,-536.5 701,-536.5 701,-530.5 707,-524.5 713,-524.5 713,-524.5 999,-524.5 999,-524.5 1005,-524.5 1011,-530.5 1011,-536.5 1011,-536.5 1011,-548.5 1011,-548.5 1011,-554.5 1005,-560.5 999,-560.5"/>
<text text-anchor="middle" x="856" y="-538.8" font-family="Times,serif" font-size="14.00">685: _make_mockup_dict_from_wordlist()</text>
</g>
<!-- node_c2005be8 -->
<g id="node20" class="node">
<title>node_c2005be8</title>
<path fill="#966f33" stroke="black" d="M593,-612.5C593,-612.5 435,-612.5 435,-612.5 429,-612.5 423,-606.5 423,-600.5 423,-600.5 423,-588.5 423,-588.5 423,-582.5 429,-576.5 435,-576.5 435,-576.5 593,-576.5 593,-576.5 599,-576.5 605,-582.5 605,-588.5 605,-588.5 605,-600.5 605,-600.5 605,-606.5 599,-612.5 593,-612.5"/>
<text text-anchor="middle" x="514" y="-590.8" font-family="Times,serif" font-size="14.00">524: download_model()</text>
</g>
<!-- node_c2005be8&#45;&gt;node_0cd38866 -->
<g id="edge14" class="edge">
<title>node_c2005be8&#45;&gt;node_0cd38866</title>
<path fill="none" stroke="#000000" stroke-width="2" d="M588,-576.01C588,-544.19 588,-482.5 588,-482.5 588,-482.5 735.45,-482.5 735.45,-482.5"/>
<polygon fill="#000000" stroke="#000000" stroke-width="2" points="735.45,-486 745.45,-482.5 735.45,-479 735.45,-486"/>
</g>
<!-- node_c4b3d289 -->
<g id="node21" class="node">
<title>node_c4b3d289</title>
<path fill="#cccccc" stroke="black" d="M559,-558.5C559,-558.5 469,-558.5 469,-558.5 463,-558.5 457,-552.5 457,-546.5 457,-546.5 457,-534.5 457,-534.5 457,-528.5 463,-522.5 469,-522.5 469,-522.5 559,-522.5 559,-522.5 565,-522.5 571,-528.5 571,-534.5 571,-534.5 571,-546.5 571,-546.5 571,-552.5 565,-558.5 559,-558.5"/>
<text text-anchor="middle" x="514" y="-536.8" font-family="Times,serif" font-size="14.00">717: extract()</text>
</g>
<!-- node_c4b3d289&#45;&gt;node_ddef64c1 -->
<g id="edge15" class="edge">
<title>node_c4b3d289&#45;&gt;node_ddef64c1</title>
<path fill="none" stroke="#e69f00" stroke-width="2" d="M568,-522.39C568,-500.26 568,-465.7 568,-465.7 568,-465.7 1066.91,-465.7 1066.91,-465.7"/>
<polygon fill="#e69f00" stroke="#e69f00" stroke-width="2" points="1066.91,-469.2 1076.91,-465.7 1066.91,-462.2 1066.91,-469.2"/>
</g>
<!-- node_c4b3d289&#45;&gt;node_55d500c3 -->
<g id="edge21" class="edge">
<title>node_c4b3d289&#45;&gt;node_55d500c3</title>
<path fill="none" stroke="#e69f00" stroke-width="2" d="M571.27,-547.17C592.27,-547.17 611,-547.17 611,-547.17 611,-547.17 611,-595.5 611,-595.5 611,-595.5 700.3,-595.5 700.3,-595.5"/>
<polygon fill="#e69f00" stroke="#e69f00" stroke-width="2" points="700.3,-599 710.3,-595.5 700.3,-592 700.3,-599"/>
</g>
<!-- node_c4b3d289&#45;&gt;node_e168e441 -->
<g id="edge22" class="edge">
<title>node_c4b3d289&#45;&gt;node_e168e441</title>
<path fill="none" stroke="#e69f00" stroke-width="2" d="M571.24,-535.83C571.24,-535.83 690.8,-535.83 690.8,-535.83"/>
<polygon fill="#e69f00" stroke="#e69f00" stroke-width="2" points="690.8,-539.33 700.8,-535.83 690.8,-532.33 690.8,-539.33"/>
</g>
<!-- node_0e52ca2a -->
<g id="node22" class="node">
<title>node_0e52ca2a</title>
<path fill="#966f33" stroke="black" d="M626,-828.5C626,-828.5 402,-828.5 402,-828.5 396,-828.5 390,-822.5 390,-816.5 390,-816.5 390,-804.5 390,-804.5 390,-798.5 396,-792.5 402,-792.5 402,-792.5 626,-792.5 626,-792.5 632,-792.5 638,-798.5 638,-804.5 638,-804.5 638,-816.5 638,-816.5 638,-822.5 632,-828.5 626,-828.5"/>
<text text-anchor="middle" x="514" y="-806.8" font-family="Times,serif" font-size="14.00">897: filter_dataset_and_extract()</text>
</g>
<!-- node_0e52ca2a&#45;&gt;node_838560ce -->
<g id="edge23" class="edge">
<title>node_0e52ca2a&#45;&gt;node_838560ce</title>
<path fill="none" stroke="#56b4e9" stroke-width="2" d="M603,-828.58C603,-869.47 603,-965.5 603,-965.5 603,-965.5 788.91,-965.5 788.91,-965.5"/>
<polygon fill="#56b4e9" stroke="#56b4e9" stroke-width="2" points="788.91,-969 798.91,-965.5 788.91,-962 788.91,-969"/>
</g>
<!-- node_cb165975 -->
<g id="node29" class="node">
<title>node_cb165975</title>
<path fill="#cccccc" stroke="black" d="M921,-1063.5C921,-1063.5 791,-1063.5 791,-1063.5 785,-1063.5 779,-1057.5 779,-1051.5 779,-1051.5 779,-1039.5 779,-1039.5 779,-1033.5 785,-1027.5 791,-1027.5 791,-1027.5 921,-1027.5 921,-1027.5 927,-1027.5 933,-1033.5 933,-1039.5 933,-1039.5 933,-1051.5 933,-1051.5 933,-1057.5 927,-1063.5 921,-1063.5"/>
<text text-anchor="middle" x="856" y="-1041.8" font-family="Times,serif" font-size="14.00">387: build_corpus()</text>
</g>
<!-- node_0e52ca2a&#45;&gt;node_cb165975 -->
<g id="edge24" class="edge">
<title>node_0e52ca2a&#45;&gt;node_cb165975</title>
<path fill="none" stroke="#56b4e9" stroke-width="2" d="M638.27,-810.5C711.53,-810.5 790,-810.5 790,-810.5 790,-810.5 790,-1017.45 790,-1017.45"/>
<polygon fill="#56b4e9" stroke="#56b4e9" stroke-width="2" points="786.5,-1017.45 790,-1027.45 793.5,-1017.45 786.5,-1017.45"/>
</g>
<!-- node_b2435739 -->
<g id="node38" class="node">
<title>node_b2435739</title>
<path fill="#cccccc" stroke="black" d="M1236.5,-957.5C1236.5,-957.5 1093.5,-957.5 1093.5,-957.5 1087.5,-957.5 1081.5,-951.5 1081.5,-945.5 1081.5,-945.5 1081.5,-933.5 1081.5,-933.5 1081.5,-927.5 1087.5,-921.5 1093.5,-921.5 1093.5,-921.5 1236.5,-921.5 1236.5,-921.5 1242.5,-921.5 1248.5,-927.5 1248.5,-933.5 1248.5,-933.5 1248.5,-945.5 1248.5,-945.5 1248.5,-951.5 1242.5,-957.5 1236.5,-957.5"/>
<text text-anchor="middle" x="1165" y="-935.8" font-family="Times,serif" font-size="14.00">172: reduce_corpus()</text>
</g>
<!-- node_0e52ca2a&#45;&gt;node_b2435739 -->
<g id="edge25" class="edge">
<title>node_0e52ca2a&#45;&gt;node_b2435739</title>
<path fill="none" stroke="#56b4e9" stroke-width="2" d="M621,-828.53C621,-862.92 621,-934.5 621,-934.5 621,-934.5 1071.49,-934.5 1071.49,-934.5"/>
<polygon fill="#56b4e9" stroke="#56b4e9" stroke-width="2" points="1071.49,-938 1081.49,-934.5 1071.49,-931 1071.49,-938"/>
</g>
<!-- node_f705beb0 -->
<g id="node23" class="node">
<title>node_f705beb0</title>
<path fill="#6db33f" stroke="black" d="M919.5,-668.5C919.5,-668.5 792.5,-668.5 792.5,-668.5 786.5,-668.5 780.5,-662.5 780.5,-656.5 780.5,-656.5 780.5,-644.5 780.5,-644.5 780.5,-638.5 786.5,-632.5 792.5,-632.5 792.5,-632.5 919.5,-632.5 919.5,-632.5 925.5,-632.5 931.5,-638.5 931.5,-644.5 931.5,-644.5 931.5,-656.5 931.5,-656.5 931.5,-662.5 925.5,-668.5 919.5,-668.5"/>
<text text-anchor="middle" x="856" y="-646.8" font-family="Times,serif" font-size="14.00">980: loop_extract()</text>
</g>
<!-- node_76eb7a64 -->
<g id="node24" class="node">
<title>node_76eb7a64</title>
<path fill="#966f33" stroke="black" d="M570,-882.5C570,-882.5 458,-882.5 458,-882.5 452,-882.5 446,-876.5 446,-870.5 446,-870.5 446,-858.5 446,-858.5 446,-852.5 452,-846.5 458,-846.5 458,-846.5 570,-846.5 570,-846.5 576,-846.5 582,-852.5 582,-858.5 582,-858.5 582,-870.5 582,-870.5 582,-876.5 576,-882.5 570,-882.5"/>
<text text-anchor="middle" x="514" y="-860.8" font-family="Times,serif" font-size="14.00">531: prep_coha()</text>
</g>
<!-- node_56410925 -->
<g id="node34" class="node">
<title>node_56410925</title>
<path fill="#cccccc" stroke="black" d="M573.5,-1090.5C573.5,-1090.5 454.5,-1090.5 454.5,-1090.5 448.5,-1090.5 442.5,-1084.5 442.5,-1078.5 442.5,-1078.5 442.5,-1066.5 442.5,-1066.5 442.5,-1060.5 448.5,-1054.5 454.5,-1054.5 454.5,-1054.5 573.5,-1054.5 573.5,-1054.5 579.5,-1054.5 585.5,-1060.5 585.5,-1066.5 585.5,-1066.5 585.5,-1078.5 585.5,-1078.5 585.5,-1084.5 579.5,-1090.5 573.5,-1090.5"/>
<text text-anchor="middle" x="514" y="-1068.8" font-family="Times,serif" font-size="14.00">488: prep_slices()</text>
</g>
<!-- node_76eb7a64&#45;&gt;node_56410925 -->
<g id="edge26" class="edge">
<title>node_76eb7a64&#45;&gt;node_56410925</title>
<path fill="none" stroke="#f0e442" stroke-width="2" d="M514,-882.59C514,-882.59 514,-1044.3 514,-1044.3"/>
<polygon fill="#f0e442" stroke="#f0e442" stroke-width="2" points="510.5,-1044.3 514,-1054.3 517.5,-1044.3 510.5,-1044.3"/>
</g>
<!-- node_48f67a2a -->
<g id="node25" class="node">
<title>node_48f67a2a</title>
<path fill="#966f33" stroke="black" d="M561.5,-666.5C561.5,-666.5 466.5,-666.5 466.5,-666.5 460.5,-666.5 454.5,-660.5 454.5,-654.5 454.5,-654.5 454.5,-642.5 454.5,-642.5 454.5,-636.5 460.5,-630.5 466.5,-630.5 466.5,-630.5 561.5,-630.5 561.5,-630.5 567.5,-630.5 573.5,-636.5 573.5,-642.5 573.5,-642.5 573.5,-654.5 573.5,-654.5 573.5,-660.5 567.5,-666.5 561.5,-666.5"/>
<text text-anchor="middle" x="514" y="-644.8" font-family="Times,serif" font-size="14.00">1005: test_le()</text>
</g>
<!-- node_48f67a2a&#45;&gt;node_f705beb0 -->
<g id="edge27" class="edge">
<title>node_48f67a2a&#45;&gt;node_f705beb0</title>
<path fill="none" stroke="#56b4e9" stroke-width="2" d="M573.57,-649.5C573.57,-649.5 770.36,-649.5 770.36,-649.5"/>
<polygon fill="#56b4e9" stroke="#56b4e9" stroke-width="2" points="770.36,-653 780.36,-649.5 770.36,-646 770.36,-653"/>
</g>
<!-- node_6ead9ee8 -->
<g id="node26" class="node">
<title>node_6ead9ee8</title>
<path fill="#cccccc" stroke="black" d="M551,-720.5C551,-720.5 477,-720.5 477,-720.5 471,-720.5 465,-714.5 465,-708.5 465,-708.5 465,-696.5 465,-696.5 465,-690.5 471,-684.5 477,-684.5 477,-684.5 551,-684.5 551,-684.5 557,-684.5 563,-690.5 563,-696.5 563,-696.5 563,-708.5 563,-708.5 563,-714.5 557,-720.5 551,-720.5"/>
<text text-anchor="middle" x="514" y="-698.8" font-family="Times,serif" font-size="14.00">546: train()</text>
</g>
<!-- node_6ead9ee8&#45;&gt;node_3428feae -->
<g id="edge28" class="edge">
<title>node_6ead9ee8&#45;&gt;node_3428feae</title>
<path fill="none" stroke="#000000" stroke-width="2" d="M563.03,-702.5C747.72,-702.5 1391,-702.5 1391,-702.5 1391,-702.5 1391,-829.42 1391,-829.42"/>
<polygon fill="#000000" stroke="#000000" stroke-width="2" points="1387.5,-829.42 1391,-839.42 1394.5,-829.42 1387.5,-829.42"/>
</g>
<!-- node_5caba7ea -->
<g id="node27" class="node">
<title>node_5caba7ea</title>
<path fill="#cccccc" stroke="black" d="M957,-1225.5C957,-1225.5 755,-1225.5 755,-1225.5 749,-1225.5 743,-1219.5 743,-1213.5 743,-1213.5 743,-1201.5 743,-1201.5 743,-1195.5 749,-1189.5 755,-1189.5 755,-1189.5 957,-1189.5 957,-1189.5 963,-1189.5 969,-1195.5 969,-1201.5 969,-1201.5 969,-1213.5 969,-1213.5 969,-1219.5 963,-1225.5 957,-1225.5"/>
<text text-anchor="middle" x="856" y="-1203.8" font-family="Times,serif" font-size="14.00">375: _extract_several_slices()</text>
</g>
<!-- node_ee20ea85 -->
<g id="node33" class="node">
<title>node_ee20ea85</title>
<path fill="#cccccc" stroke="black" d="M1245.5,-1145.5C1245.5,-1145.5 1084.5,-1145.5 1084.5,-1145.5 1078.5,-1145.5 1072.5,-1139.5 1072.5,-1133.5 1072.5,-1133.5 1072.5,-1121.5 1072.5,-1121.5 1072.5,-1115.5 1078.5,-1109.5 1084.5,-1109.5 1084.5,-1109.5 1245.5,-1109.5 1245.5,-1109.5 1251.5,-1109.5 1257.5,-1115.5 1257.5,-1121.5 1257.5,-1121.5 1257.5,-1133.5 1257.5,-1133.5 1257.5,-1139.5 1251.5,-1145.5 1245.5,-1145.5"/>
<text text-anchor="middle" x="1165" y="-1123.8" font-family="Times,serif" font-size="14.00">347: extract_one_slice()</text>
</g>
<!-- node_5caba7ea&#45;&gt;node_ee20ea85 -->
<g id="edge29" class="edge">
<title>node_5caba7ea&#45;&gt;node_ee20ea85</title>
<path fill="none" stroke="#56b4e9" stroke-width="2" d="M960,-1189.19C960,-1169.35 960,-1140.5 960,-1140.5 960,-1140.5 1062.4,-1140.5 1062.4,-1140.5"/>
<polygon fill="#56b4e9" stroke="#56b4e9" stroke-width="2" points="1062.4,-1144 1072.4,-1140.5 1062.4,-1137 1062.4,-1144"/>
</g>
<!-- node_14fbdddc -->
<g id="node28" class="node">
<title>node_14fbdddc</title>
<path fill="#cccccc" stroke="black" d="M928.5,-1279.5C928.5,-1279.5 783.5,-1279.5 783.5,-1279.5 777.5,-1279.5 771.5,-1273.5 771.5,-1267.5 771.5,-1267.5 771.5,-1255.5 771.5,-1255.5 771.5,-1249.5 777.5,-1243.5 783.5,-1243.5 783.5,-1243.5 928.5,-1243.5 928.5,-1243.5 934.5,-1243.5 940.5,-1249.5 940.5,-1255.5 940.5,-1255.5 940.5,-1267.5 940.5,-1267.5 940.5,-1273.5 934.5,-1279.5 928.5,-1279.5"/>
<text text-anchor="middle" x="856" y="-1257.8" font-family="Times,serif" font-size="14.00">326: _unzip_dataset()</text>
</g>
<!-- node_14fbdddc&#45;&gt;node_3428feae -->
<g id="edge30" class="edge">
<title>node_14fbdddc&#45;&gt;node_3428feae</title>
<path fill="none" stroke="#f0e442" stroke-width="2" d="M940.67,-1261.5C1101.21,-1261.5 1434,-1261.5 1434,-1261.5 1434,-1261.5 1434,-885.64 1434,-885.64"/>
<polygon fill="#f0e442" stroke="#f0e442" stroke-width="2" points="1437.5,-885.64 1434,-875.64 1430.5,-885.64 1437.5,-885.64"/>
</g>
<!-- node_00850417 -->
<g id="node40" class="node">
<title>node_00850417</title>
<path fill="#6db33f" stroke="black" d="M1228.5,-1354.5C1228.5,-1354.5 1101.5,-1354.5 1101.5,-1354.5 1095.5,-1354.5 1089.5,-1348.5 1089.5,-1342.5 1089.5,-1342.5 1089.5,-1330.5 1089.5,-1330.5 1089.5,-1324.5 1095.5,-1318.5 1101.5,-1318.5 1101.5,-1318.5 1228.5,-1318.5 1228.5,-1318.5 1234.5,-1318.5 1240.5,-1324.5 1240.5,-1330.5 1240.5,-1330.5 1240.5,-1342.5 1240.5,-1342.5 1240.5,-1348.5 1234.5,-1354.5 1228.5,-1354.5"/>
<text text-anchor="middle" x="1165" y="-1332.8" font-family="Times,serif" font-size="14.00">260: setup_punkt()</text>
</g>
<!-- node_cb165975&#45;&gt;node_00850417 -->
<g id="edge31" class="edge">
<title>node_cb165975&#45;&gt;node_00850417</title>
<path fill="none" stroke="#0072b2" stroke-width="2" d="M933.27,-1045.5C970.42,-1045.5 1007,-1045.5 1007,-1045.5 1007,-1045.5 1007,-1322.5 1007,-1322.5 1007,-1322.5 1079.24,-1322.5 1079.24,-1322.5"/>
<polygon fill="#0072b2" stroke="#0072b2" stroke-width="2" points="1079.24,-1326 1089.24,-1322.5 1079.24,-1319 1079.24,-1326"/>
</g>
<!-- node_524bda53 -->
<g id="node30" class="node">
<title>node_524bda53</title>
<path fill="#6db33f" stroke="black" d="M893,-1171.5C893,-1171.5 819,-1171.5 819,-1171.5 813,-1171.5 807,-1165.5 807,-1159.5 807,-1159.5 807,-1147.5 807,-1147.5 807,-1141.5 813,-1135.5 819,-1135.5 819,-1135.5 893,-1135.5 893,-1135.5 899,-1135.5 905,-1141.5 905,-1147.5 905,-1147.5 905,-1159.5 905,-1159.5 905,-1165.5 899,-1171.5 893,-1171.5"/>
<text text-anchor="middle" x="856" y="-1149.8" font-family="Times,serif" font-size="14.00">340: clear()</text>
</g>
<!-- node_f30c3bda -->
<g id="node31" class="node">
<title>node_f30c3bda</title>
<path fill="#cccccc" stroke="black" d="M938.5,-1117.5C938.5,-1117.5 773.5,-1117.5 773.5,-1117.5 767.5,-1117.5 761.5,-1111.5 761.5,-1105.5 761.5,-1105.5 761.5,-1093.5 761.5,-1093.5 761.5,-1087.5 767.5,-1081.5 773.5,-1081.5 773.5,-1081.5 938.5,-1081.5 938.5,-1081.5 944.5,-1081.5 950.5,-1087.5 950.5,-1093.5 950.5,-1093.5 950.5,-1105.5 950.5,-1105.5 950.5,-1111.5 944.5,-1117.5 938.5,-1117.5"/>
<text text-anchor="middle" x="856" y="-1095.8" font-family="Times,serif" font-size="14.00">320: download_sample()</text>
</g>
<!-- node_f30c3bda&#45;&gt;node_0cd38866 -->
<g id="edge32" class="edge">
<title>node_f30c3bda&#45;&gt;node_0cd38866</title>
<path fill="none" stroke="#56b4e9" stroke-width="2" d="M761.4,-1084.5C721.01,-1084.5 683,-1084.5 683,-1084.5 683,-1084.5 683,-494.5 683,-494.5 683,-494.5 735.46,-494.5 735.46,-494.5"/>
<polygon fill="#56b4e9" stroke="#56b4e9" stroke-width="2" points="735.46,-498 745.46,-494.5 735.46,-491 735.46,-498"/>
</g>
<!-- node_148071f3 -->
<g id="node32" class="node">
<title>node_148071f3</title>
<path fill="#966f33" stroke="black" d="M559,-1252.5C559,-1252.5 469,-1252.5 469,-1252.5 463,-1252.5 457,-1246.5 457,-1240.5 457,-1240.5 457,-1228.5 457,-1228.5 457,-1222.5 463,-1216.5 469,-1216.5 469,-1216.5 559,-1216.5 559,-1216.5 565,-1216.5 571,-1222.5 571,-1228.5 571,-1228.5 571,-1240.5 571,-1240.5 571,-1246.5 565,-1252.5 559,-1252.5"/>
<text text-anchor="middle" x="514" y="-1230.8" font-family="Times,serif" font-size="14.00">381: extract()</text>
</g>
<!-- node_148071f3&#45;&gt;node_5caba7ea -->
<g id="edge33" class="edge">
<title>node_148071f3&#45;&gt;node_5caba7ea</title>
<path fill="none" stroke="#009e73" stroke-width="2" d="M571.24,-1221C571.24,-1221 732.81,-1221 732.81,-1221"/>
<polygon fill="#009e73" stroke="#009e73" stroke-width="2" points="732.81,-1224.5 742.81,-1221 732.81,-1217.5 732.81,-1224.5"/>
</g>
<!-- node_148071f3&#45;&gt;node_14fbdddc -->
<g id="edge34" class="edge">
<title>node_148071f3&#45;&gt;node_14fbdddc</title>
<path fill="none" stroke="#009e73" stroke-width="2" d="M571.24,-1248C571.24,-1248 761.3,-1248 761.3,-1248"/>
<polygon fill="#009e73" stroke="#009e73" stroke-width="2" points="761.3,-1251.5 771.3,-1248 761.3,-1244.5 761.3,-1251.5"/>
</g>
<!-- node_ee20ea85&#45;&gt;node_3428feae -->
<g id="edge35" class="edge">
<title>node_ee20ea85&#45;&gt;node_3428feae</title>
<path fill="none" stroke="#0072b2" stroke-width="2" d="M1253,-1109.18C1253,-1048.97 1253,-861 1253,-861 1253,-861 1336.41,-861 1336.41,-861"/>
<polygon fill="#0072b2" stroke="#0072b2" stroke-width="2" points="1336.41,-864.5 1346.41,-861 1336.41,-857.5 1336.41,-864.5"/>
</g>
<!-- node_56410925&#45;&gt;node_cb165975 -->
<g id="edge36" class="edge">
<title>node_56410925&#45;&gt;node_cb165975</title>
<path fill="none" stroke="#0072b2" stroke-width="2" d="M585.69,-1059C585.69,-1059 768.75,-1059 768.75,-1059"/>
<polygon fill="#0072b2" stroke="#0072b2" stroke-width="2" points="768.75,-1062.5 778.75,-1059 768.75,-1055.5 768.75,-1062.5"/>
</g>
<!-- node_56410925&#45;&gt;node_524bda53 -->
<g id="edge37" class="edge">
<title>node_56410925&#45;&gt;node_524bda53</title>
<path fill="none" stroke="#0072b2" stroke-width="2" d="M579,-1090.88C579,-1114.78 579,-1153.5 579,-1153.5 579,-1153.5 796.8,-1153.5 796.8,-1153.5"/>
<polygon fill="#0072b2" stroke="#0072b2" stroke-width="2" points="796.8,-1157 806.8,-1153.5 796.8,-1150 796.8,-1157"/>
</g>
<!-- node_56410925&#45;&gt;node_f30c3bda -->
<g id="edge39" class="edge">
<title>node_56410925&#45;&gt;node_f30c3bda</title>
<path fill="none" stroke="#0072b2" stroke-width="2" d="M585.69,-1087.5C585.69,-1087.5 751.34,-1087.5 751.34,-1087.5"/>
<polygon fill="#0072b2" stroke="#0072b2" stroke-width="2" points="751.35,-1091 761.34,-1087.5 751.34,-1084 751.35,-1091"/>
</g>
<!-- node_8f6730a6 -->
<g id="node35" class="node">
<title>node_8f6730a6</title>
<path fill="#6db33f" stroke="black" d="M653,-1362.5C653,-1362.5 375,-1362.5 375,-1362.5 369,-1362.5 363,-1356.5 363,-1350.5 363,-1350.5 363,-1338.5 363,-1338.5 363,-1332.5 369,-1326.5 375,-1326.5 375,-1326.5 653,-1326.5 653,-1326.5 659,-1326.5 665,-1332.5 665,-1338.5 665,-1338.5 665,-1350.5 665,-1350.5 665,-1356.5 659,-1362.5 653,-1362.5"/>
<text text-anchor="middle" x="514" y="-1340.8" font-family="Times,serif" font-size="14.00">1036: _filter_results_file_with_wordlist()</text>
</g>
<!-- node_9bcd74cf -->
<g id="node36" class="node">
<title>node_9bcd74cf</title>
<path fill="#966f33" stroke="black" d="M233,-1362.5C233,-1362.5 94,-1362.5 94,-1362.5 88,-1362.5 82,-1356.5 82,-1350.5 82,-1350.5 82,-1338.5 82,-1338.5 82,-1332.5 88,-1326.5 94,-1326.5 94,-1326.5 233,-1326.5 233,-1326.5 239,-1326.5 245,-1332.5 245,-1338.5 245,-1338.5 245,-1350.5 245,-1350.5 245,-1356.5 239,-1362.5 233,-1362.5"/>
<text text-anchor="middle" x="163.5" y="-1340.8" font-family="Times,serif" font-size="14.00">1051: filter_results()</text>
</g>
<!-- node_9bcd74cf&#45;&gt;node_6264e7fa -->
<g id="edge40" class="edge">
<title>node_9bcd74cf&#45;&gt;node_6264e7fa</title>
<path fill="none" stroke="#cc79a7" stroke-width="2" d="M137,-1326.26C137,-1227.01 137,-756.5 137,-756.5 137,-756.5 401.48,-756.5 401.48,-756.5"/>
<polygon fill="#cc79a7" stroke="#cc79a7" stroke-width="2" points="401.48,-760 411.48,-756.5 401.48,-753 401.48,-760"/>
</g>
<!-- node_9bcd74cf&#45;&gt;node_8f6730a6 -->
<g id="edge41" class="edge">
<title>node_9bcd74cf&#45;&gt;node_8f6730a6</title>
<path fill="none" stroke="#cc79a7" stroke-width="2" d="M245.23,-1344.5C245.23,-1344.5 352.93,-1344.5 352.93,-1344.5"/>
<polygon fill="#cc79a7" stroke="#cc79a7" stroke-width="2" points="352.93,-1348 362.93,-1344.5 352.93,-1341 352.93,-1348"/>
</g>
<!-- node_e20ac52c -->
<g id="node37" class="node">
<title>node_e20ac52c</title>
<path fill="#966f33" stroke="black" d="M242.5,-187.5C242.5,-187.5 84.5,-187.5 84.5,-187.5 78.5,-187.5 72.5,-181.5 72.5,-175.5 72.5,-175.5 72.5,-163.5 72.5,-163.5 72.5,-157.5 78.5,-151.5 84.5,-151.5 84.5,-151.5 242.5,-151.5 242.5,-151.5 248.5,-151.5 254.5,-157.5 254.5,-163.5 254.5,-163.5 254.5,-175.5 254.5,-175.5 254.5,-181.5 248.5,-187.5 242.5,-187.5"/>
<text text-anchor="middle" x="163.5" y="-165.8" font-family="Times,serif" font-size="14.00">309: freeze_hashdeep()</text>
</g>
<!-- node_e20ac52c&#45;&gt;node_9bcb73b0 -->
<g id="edge42" class="edge">
<title>node_e20ac52c&#45;&gt;node_9bcb73b0</title>
<path fill="none" stroke="#f0e442" stroke-width="2" d="M254.67,-182C254.67,-182 389.74,-182 389.74,-182"/>
<polygon fill="#f0e442" stroke="#f0e442" stroke-width="2" points="389.74,-185.5 399.74,-182 389.74,-178.5 389.74,-185.5"/>
</g>
<!-- node_e20ac52c&#45;&gt;node_2b70f46b -->
<g id="edge43" class="edge">
<title>node_e20ac52c&#45;&gt;node_2b70f46b</title>
<path fill="none" stroke="#f0e442" stroke-width="2" d="M254.67,-155C254.67,-155 396.47,-155 396.47,-155"/>
<polygon fill="#f0e442" stroke="#f0e442" stroke-width="2" points="396.47,-158.5 406.47,-155 396.47,-151.5 396.47,-158.5"/>
</g>
<!-- node_b2435739&#45;&gt;node_3428feae -->
<g id="edge44" class="edge">
<title>node_b2435739&#45;&gt;node_3428feae</title>
<path fill="none" stroke="#e69f00" stroke-width="2" d="M1248.51,-939.5C1312.89,-939.5 1391,-939.5 1391,-939.5 1391,-939.5 1391,-885.7 1391,-885.7"/>
<polygon fill="#e69f00" stroke="#e69f00" stroke-width="2" points="1394.5,-885.7 1391,-875.7 1387.5,-885.7 1394.5,-885.7"/>
</g>
<!-- node_e8352968 -->
<g id="node39" class="node">
<title>node_e8352968</title>
<path fill="#966f33" stroke="black" d="M233.5,-469.5C233.5,-469.5 93.5,-469.5 93.5,-469.5 87.5,-469.5 81.5,-463.5 81.5,-457.5 81.5,-457.5 81.5,-445.5 81.5,-445.5 81.5,-439.5 87.5,-433.5 93.5,-433.5 93.5,-433.5 233.5,-433.5 233.5,-433.5 239.5,-433.5 245.5,-439.5 245.5,-445.5 245.5,-445.5 245.5,-457.5 245.5,-457.5 245.5,-463.5 239.5,-469.5 233.5,-469.5"/>
<text text-anchor="middle" x="163.5" y="-447.8" font-family="Times,serif" font-size="14.00">1098: train_extract()</text>
</g>
<!-- node_e8352968&#45;&gt;node_ddef64c1 -->
<g id="edge45" class="edge">
<title>node_e8352968&#45;&gt;node_ddef64c1</title>
<path fill="none" stroke="#000000" stroke-width="2" d="M245.88,-458.1C245.88,-458.1 1066.65,-458.1 1066.65,-458.1"/>
<polygon fill="#000000" stroke="#000000" stroke-width="2" points="1066.65,-461.6 1076.65,-458.1 1066.65,-454.6 1066.65,-461.6"/>
</g>
<!-- node_e8352968&#45;&gt;node_c4b3d289 -->
<g id="edge48" class="edge">
<title>node_e8352968&#45;&gt;node_c4b3d289</title>
<path fill="none" stroke="#000000" stroke-width="2" d="M245.58,-461.9C333.64,-461.9 461,-461.9 461,-461.9 461,-461.9 461,-512.27 461,-512.27"/>
<polygon fill="#000000" stroke="#000000" stroke-width="2" points="457.5,-512.27 461,-522.27 464.5,-512.27 457.5,-512.27"/>
</g>
<!-- node_e8352968&#45;&gt;node_6ead9ee8 -->
<g id="edge49" class="edge">
<title>node_e8352968&#45;&gt;node_6ead9ee8</title>
<path fill="none" stroke="#000000" stroke-width="2" d="M191,-469.55C191,-527.1 191,-702.5 191,-702.5 191,-702.5 454.94,-702.5 454.94,-702.5"/>
<polygon fill="#000000" stroke="#000000" stroke-width="2" points="454.94,-706 464.94,-702.5 454.94,-699 454.94,-706"/>
</g>
<!-- node_e4f81726 -->
<g id="node42" class="node">
<title>node_e4f81726</title>
<path fill="#6db33f" stroke="black" d="M1482,-276.5C1482,-276.5 1342,-276.5 1342,-276.5 1336,-276.5 1330,-270.5 1330,-264.5 1330,-264.5 1330,-252.5 1330,-252.5 1330,-246.5 1336,-240.5 1342,-240.5 1342,-240.5 1482,-240.5 1482,-240.5 1488,-240.5 1494,-246.5 1494,-252.5 1494,-252.5 1494,-264.5 1494,-264.5 1494,-270.5 1488,-276.5 1482,-276.5"/>
<text text-anchor="middle" x="1412" y="-254.8" font-family="Times,serif" font-size="14.00">1180: _get_syn_ant()</text>
</g>
<!-- node_bdbc4c8c -->
<g id="node43" class="node">
<title>node_bdbc4c8c</title>
<path fill="#cccccc" stroke="black" d="M1239.5,-276.5C1239.5,-276.5 1090.5,-276.5 1090.5,-276.5 1084.5,-276.5 1078.5,-270.5 1078.5,-264.5 1078.5,-264.5 1078.5,-252.5 1078.5,-252.5 1078.5,-246.5 1084.5,-240.5 1090.5,-240.5 1090.5,-240.5 1239.5,-240.5 1239.5,-240.5 1245.5,-240.5 1251.5,-246.5 1251.5,-252.5 1251.5,-252.5 1251.5,-264.5 1251.5,-264.5 1251.5,-270.5 1245.5,-276.5 1239.5,-276.5"/>
<text text-anchor="middle" x="1165" y="-254.8" font-family="Times,serif" font-size="14.00">1198: _syn_method1()</text>
</g>
<!-- node_bdbc4c8c&#45;&gt;node_e4f81726 -->
<g id="edge50" class="edge">
<title>node_bdbc4c8c&#45;&gt;node_e4f81726</title>
<path fill="none" stroke="#f0e442" stroke-width="2" d="M1251.74,-258.5C1251.74,-258.5 1319.62,-258.5 1319.62,-258.5"/>
<polygon fill="#f0e442" stroke="#f0e442" stroke-width="2" points="1319.62,-262 1329.62,-258.5 1319.62,-255 1319.62,-262"/>
</g>
<!-- node_a704e4d0 -->
<g id="node44" class="node">
<title>node_a704e4d0</title>
<path fill="#966f33" stroke="black" d="M933,-303.5C933,-303.5 779,-303.5 779,-303.5 773,-303.5 767,-297.5 767,-291.5 767,-291.5 767,-279.5 767,-279.5 767,-273.5 773,-267.5 779,-267.5 779,-267.5 933,-267.5 933,-267.5 939,-267.5 945,-273.5 945,-279.5 945,-279.5 945,-291.5 945,-291.5 945,-297.5 939,-303.5 933,-303.5"/>
<text text-anchor="middle" x="856" y="-281.8" font-family="Times,serif" font-size="14.00">1210: make_syn_files()</text>
</g>
<!-- node_a704e4d0&#45;&gt;node_ddef64c1 -->
<g id="edge51" class="edge">
<title>node_a704e4d0&#45;&gt;node_ddef64c1</title>
<path fill="none" stroke="#000000" stroke-width="2" d="M924,-303.56C924,-347.11 924,-454.3 924,-454.3 924,-454.3 1066.97,-454.3 1066.97,-454.3"/>
<polygon fill="#000000" stroke="#000000" stroke-width="2" points="1066.97,-457.8 1076.97,-454.3 1066.97,-450.8 1066.97,-457.8"/>
</g>
<!-- node_a704e4d0&#45;&gt;node_71627cf9 -->
<g id="edge52" class="edge">
<title>node_a704e4d0&#45;&gt;node_71627cf9</title>
<path fill="none" stroke="#000000" stroke-width="2" d="M935,-303.66C935,-324.54 935,-356 935,-356 935,-356 1066.4,-356 1066.4,-356"/>
<polygon fill="#000000" stroke="#000000" stroke-width="2" points="1066.41,-359.5 1076.4,-356 1066.4,-352.5 1066.41,-359.5"/>
</g>
<!-- node_a704e4d0&#45;&gt;node_afe171a5 -->
<g id="edge53" class="edge">
<title>node_a704e4d0&#45;&gt;node_afe171a5</title>
<path fill="none" stroke="#000000" stroke-width="2" d="M945.02,-290C998.01,-290 1055,-290 1055,-290 1055,-290 1055,-541.16 1055,-541.16"/>
<polygon fill="#000000" stroke="#000000" stroke-width="2" points="1051.5,-541.16 1055,-551.16 1058.5,-541.16 1051.5,-541.16"/>
</g>
<!-- node_a704e4d0&#45;&gt;node_bdbc4c8c -->
<g id="edge54" class="edge">
<title>node_a704e4d0&#45;&gt;node_bdbc4c8c</title>
<path fill="none" stroke="#000000" stroke-width="2" d="M945.38,-272C945.38,-272 1068.49,-272 1068.49,-272"/>
<polygon fill="#000000" stroke="#000000" stroke-width="2" points="1068.49,-275.5 1078.49,-272 1068.49,-268.5 1068.49,-275.5"/>
</g>
<!-- node_33e39ef3 -->
<g id="node45" class="node">
<title>node_33e39ef3</title>
<path fill="#966f33" stroke="black" d="M892.5,-249.5C892.5,-249.5 819.5,-249.5 819.5,-249.5 813.5,-249.5 807.5,-243.5 807.5,-237.5 807.5,-237.5 807.5,-225.5 807.5,-225.5 807.5,-219.5 813.5,-213.5 819.5,-213.5 819.5,-213.5 892.5,-213.5 892.5,-213.5 898.5,-213.5 904.5,-219.5 904.5,-225.5 904.5,-225.5 904.5,-237.5 904.5,-237.5 904.5,-243.5 898.5,-249.5 892.5,-249.5"/>
<text text-anchor="middle" x="856" y="-227.8" font-family="Times,serif" font-size="14.00">1207: syn()</text>
</g>
<!-- node_33e39ef3&#45;&gt;node_bdbc4c8c -->
<g id="edge55" class="edge">
<title>node_33e39ef3&#45;&gt;node_bdbc4c8c</title>
<path fill="none" stroke="#009e73" stroke-width="2" d="M904.62,-245C904.62,-245 1068.4,-245 1068.4,-245"/>
<polygon fill="#009e73" stroke="#009e73" stroke-width="2" points="1068.4,-248.5 1078.4,-245 1068.4,-241.5 1068.4,-248.5"/>
</g>
</g>
</svg>
