<?xml version="1.0" encoding="UTF-8" standalone="no"?>
<!DOCTYPE svg PUBLIC "-//W3C//DTD SVG 1.1//EN"
 "http://www.w3.org/Graphics/SVG/1.1/DTD/svg11.dtd">
<!-- Generated by graphviz version 2.43.0 (0)
 -->
<!-- Title: G Pages: 1 -->
<svg width="2864pt" height="2137pt"
 viewBox="0.00 0.00 2864.00 2136.50" xmlns="http://www.w3.org/2000/svg" xmlns:xlink="http://www.w3.org/1999/xlink">
<g id="graph0" class="graph" transform="scale(1 1) rotate(0) translate(4 2132.5)">
<title>G</title>
<polygon fill="white" stroke="transparent" points="-4,4 -4,-2132.5 2860,-2132.5 2860,4 -4,4"/>
<g id="clust2" class="cluster">
<title>cluster_ed071fbe</title>
<polygon fill="none" stroke="black" stroke-dasharray="1,5" points="142.5,-115.5 142.5,-244.5 688,-244.5 688,-115.5 142.5,-115.5"/>
<text text-anchor="middle" x="415.25" y="-229.3" font-family="Times,serif" font-size="14.00">File: build_aylien_corpus</text>
</g>
<g id="clust3" class="cluster">
<title>cluster_0eefc6f2</title>
<polygon fill="none" stroke="black" stroke-dasharray="1,5" points="1694,-1364.5 1694,-1493.5 2125.5,-1493.5 2125.5,-1364.5 1694,-1364.5"/>
<text text-anchor="middle" x="1909.75" y="-1478.3" font-family="Times,serif" font-size="14.00">File: build_coha_corpus</text>
</g>
<g id="clust4" class="cluster">
<title>cluster_c27adacd</title>
<polygon fill="none" stroke="black" stroke-dasharray="1,5" points="142.5,-644.5 142.5,-719.5 684.5,-719.5 684.5,-644.5 142.5,-644.5"/>
<text text-anchor="middle" x="413.5" y="-704.3" font-family="Times,serif" font-size="14.00">File: build_durel_corpus</text>
</g>
<g id="clust5" class="cluster">
<title>cluster_b2630bd3</title>
<polygon fill="none" stroke="black" stroke-dasharray="1,5" points="142.5,-744.5 142.5,-819.5 661,-819.5 661,-744.5 142.5,-744.5"/>
<text text-anchor="middle" x="401.75" y="-804.3" font-family="Times,serif" font-size="14.00">File: build_semeval_corpora</text>
</g>
<g id="clust6" class="cluster">
<title>cluster_efd4f19c</title>
<polygon fill="none" stroke="black" stroke-dasharray="1,5" points="142.5,-836.5 142.5,-911.5 661,-911.5 661,-836.5 142.5,-836.5"/>
<text text-anchor="middle" x="401.75" y="-896.3" font-family="Times,serif" font-size="14.00">File: build_semeval_lm_train_test</text>
</g>
<g id="clust7" class="cluster">
<title>cluster_e181d3ab</title>
<polygon fill="none" stroke="black" stroke-dasharray="1,5" points="142.5,-923.5 142.5,-1106.5 1028,-1106.5 1028,-923.5 142.5,-923.5"/>
<text text-anchor="middle" x="585.25" y="-1091.3" font-family="Times,serif" font-size="14.00">File: evaluate</text>
</g>
<g id="clust8" class="cluster">
<title>cluster_5c36315e</title>
<polygon fill="none" stroke="black" stroke-dasharray="1,5" points="142.5,-252.5 142.5,-601.5 2848,-601.5 2848,-252.5 142.5,-252.5"/>
<text text-anchor="middle" x="1495.25" y="-586.3" font-family="Times,serif" font-size="14.00">File: fine&#45;tune_BERT</text>
</g>
<g id="clust9" class="cluster">
<title>cluster_64ef994d</title>
<polygon fill="none" stroke="black" stroke-dasharray="1,5" points="1677,-260.5 1677,-335.5 1827,-335.5 1827,-260.5 1677,-260.5"/>
<text text-anchor="middle" x="1752" y="-320.3" font-family="Times,serif" font-size="14.00">Class: TextDataset</text>
</g>
<g id="clust10" class="cluster">
<title>cluster_d82314bc</title>
<polygon fill="none" stroke="black" stroke-dasharray="1,5" points="1686.5,-343.5 1686.5,-526.5 2840,-526.5 2840,-343.5 1686.5,-343.5"/>
<text text-anchor="middle" x="2263.25" y="-511.3" font-family="Times,serif" font-size="14.00">Class: LineByLineTextDataset</text>
</g>
<g id="clust11" class="cluster">
<title>cluster_2cd035cb</title>
<polygon fill="none" stroke="black" stroke-dasharray="1,5" points="1086,-609.5 1086,-1111.5 2149.5,-1111.5 2149.5,-609.5 1086,-609.5"/>
<text text-anchor="middle" x="1617.75" y="-1096.3" font-family="Times,serif" font-size="14.00">File: g5_tools</text>
</g>
<g id="clust12" class="cluster">
<title>cluster_1d9db3c9</title>
<polygon fill="none" stroke="black" stroke-dasharray="1,5" points="1391.5,-789.5 1391.5,-1080.5 2136,-1080.5 2136,-789.5 1391.5,-789.5"/>
<text text-anchor="middle" x="1763.75" y="-1065.3" font-family="Times,serif" font-size="14.00">Class: coha</text>
</g>
<g id="clust13" class="cluster">
<title>cluster_d0997041</title>
<polygon fill="none" stroke="black" stroke-dasharray="1,5" points="1094,-735.5 1094,-972.5 1292,-972.5 1292,-735.5 1094,-735.5"/>
<text text-anchor="middle" x="1193" y="-957.3" font-family="Times,serif" font-size="14.00">Class: bert</text>
</g>
<g id="clust14" class="cluster">
<title>cluster_7dfc630e</title>
<polygon fill="none" stroke="black" stroke-dasharray="1,5" points="1135.5,-1119.5 1135.5,-1356.5 1873,-1356.5 1873,-1119.5 1135.5,-1119.5"/>
<text text-anchor="middle" x="1504.25" y="-1341.3" font-family="Times,serif" font-size="14.00">File: get_embeddings_scalable</text>
</g>
<g id="clust15" class="cluster">
<title>cluster_a3a7cc9c</title>
<polygon fill="none" stroke="black" stroke-dasharray="1,5" points="142.5,-1116.5 142.5,-1353.5 1047,-1353.5 1047,-1116.5 142.5,-1116.5"/>
<text text-anchor="middle" x="594.75" y="-1338.3" font-family="Times,serif" font-size="14.00">File: get_embeddings_scalable_semeval</text>
</g>
<g id="clust16" class="cluster">
<title>cluster_2901a26c</title>
<polygon fill="none" stroke="black" stroke-dasharray="1,5" points="142.5,-1364.5 142.5,-1547.5 1319,-1547.5 1319,-1364.5 142.5,-1364.5"/>
<text text-anchor="middle" x="730.75" y="-1532.3" font-family="Times,serif" font-size="14.00">File: interpretation</text>
</g>
<g id="clust17" class="cluster">
<title>cluster_b565b8e9</title>
<polygon fill="none" stroke="black" stroke-dasharray="1,5" points="8,-1555.5 8,-1738.5 1005,-1738.5 1005,-1555.5 8,-1555.5"/>
<text text-anchor="middle" x="506.5" y="-1723.3" font-family="Times,serif" font-size="14.00">File: measure_semantic_shift</text>
</g>
<g id="clust18" class="cluster">
<title>cluster_a0f73125</title>
<polygon fill="none" stroke="black" stroke-dasharray="1,5" points="8,-1937.5 8,-2120.5 1005,-2120.5 1005,-1937.5 8,-1937.5"/>
<text text-anchor="middle" x="506.5" y="-2105.3" font-family="Times,serif" font-size="14.00">File: measure_semantic_shift_merged</text>
</g>
<g id="clust19" class="cluster">
<title>cluster_54646bc9</title>
<polygon fill="none" stroke="black" stroke-dasharray="1,5" points="8,-1746.5 8,-1929.5 1005,-1929.5 1005,-1746.5 8,-1746.5"/>
<text text-anchor="middle" x="506.5" y="-1914.3" font-family="Times,serif" font-size="14.00">File: measure_semantic_shift_merged.orig</text>
</g>
<!-- Legend -->
<g id="node1" class="node">
<title>Legend</title>
<polygon fill="none" stroke="black" points="38,-88.5 38,-105.5 363,-105.5 363,-88.5 38,-88.5"/>
<text text-anchor="start" x="134.5" y="-93.3" font-family="Times,serif" font-size="14.00">Code2flow Legend</text>
<polygon fill="none" stroke="black" points="38,-0.5 38,-88.5 363,-88.5 363,-0.5 38,-0.5"/>
<polygon fill="none" stroke="black" points="40,-65.5 40,-86.5 311,-86.5 311,-65.5 40,-65.5"/>
<text text-anchor="start" x="115.5" y="-72.3" font-family="Times,serif" font-size="14.00">Regular function</text>
<polygon fill="#cccccc" stroke="transparent" points="311,-65.5 311,-86.5 361,-86.5 361,-65.5 311,-65.5"/>
<polygon fill="none" stroke="black" points="311,-65.5 311,-86.5 361,-86.5 361,-65.5 311,-65.5"/>
<polygon fill="none" stroke="black" points="40,-44.5 40,-65.5 311,-65.5 311,-44.5 40,-44.5"/>
<text text-anchor="start" x="53.5" y="-51.3" font-family="Times,serif" font-size="14.00">Trunk function (nothing calls this)</text>
<polygon fill="#966f33" stroke="transparent" points="311,-44.5 311,-65.5 361,-65.5 361,-44.5 311,-44.5"/>
<polygon fill="none" stroke="black" points="311,-44.5 311,-65.5 361,-65.5 361,-44.5 311,-44.5"/>
<polygon fill="none" stroke="black" points="40,-23.5 40,-44.5 311,-44.5 311,-23.5 40,-23.5"/>
<text text-anchor="start" x="43" y="-30.3" font-family="Times,serif" font-size="14.00">Leaf function (this calls nothing else)</text>
<polygon fill="#6db33f" stroke="transparent" points="311,-23.5 311,-44.5 361,-44.5 361,-23.5 311,-23.5"/>
<polygon fill="none" stroke="black" points="311,-23.5 311,-44.5 361,-44.5 361,-23.5 311,-23.5"/>
<polygon fill="none" stroke="black" points="40,-2.5 40,-23.5 311,-23.5 311,-2.5 40,-2.5"/>
<text text-anchor="start" x="129" y="-9.3" font-family="Times,serif" font-size="14.00">Function call</text>
<polygon fill="none" stroke="black" points="311,-2.5 311,-23.5 361,-23.5 361,-2.5 311,-2.5"/>
<text text-anchor="start" x="329.5" y="-9.3" font-family="Times,serif" font-size="14.00">→</text>
<polygon fill="none" stroke="black" points="39,-1.5 39,-87.5 362,-87.5 362,-1.5 39,-1.5"/>
<polygon fill="none" stroke="black" points="36.5,0 36.5,-107 363.5,-107 363.5,0 36.5,0"/>
</g>
<!-- node_b5715214 -->
<g id="node2" class="node">
<title>node_b5715214</title>
<path fill="#966f33" stroke="black" d="M237.5,-187.5C237.5,-187.5 162.5,-187.5 162.5,-187.5 156.5,-187.5 150.5,-181.5 150.5,-175.5 150.5,-175.5 150.5,-163.5 150.5,-163.5 150.5,-157.5 156.5,-151.5 162.5,-151.5 162.5,-151.5 237.5,-151.5 237.5,-151.5 243.5,-151.5 249.5,-157.5 249.5,-163.5 249.5,-163.5 249.5,-175.5 249.5,-175.5 249.5,-181.5 243.5,-187.5 237.5,-187.5"/>
<text text-anchor="middle" x="200" y="-165.8" font-family="Times,serif" font-size="14.00">0: (global)()</text>
</g>
<!-- node_7dcf74e6 -->
<g id="node3" class="node">
<title>node_7dcf74e6</title>
<path fill="#6db33f" stroke="black" d="M668,-159.5C668,-159.5 528,-159.5 528,-159.5 522,-159.5 516,-153.5 516,-147.5 516,-147.5 516,-135.5 516,-135.5 516,-129.5 522,-123.5 528,-123.5 528,-123.5 668,-123.5 668,-123.5 674,-123.5 680,-129.5 680,-135.5 680,-135.5 680,-147.5 680,-147.5 680,-153.5 674,-159.5 668,-159.5"/>
<text text-anchor="middle" x="598" y="-137.8" font-family="Times,serif" font-size="14.00">37: build_data_sets()</text>
</g>
<!-- node_b5715214&#45;&gt;node_7dcf74e6 -->
<g id="edge1" class="edge">
<title>node_b5715214&#45;&gt;node_7dcf74e6</title>
<path fill="none" stroke="#f0e442" stroke-width="2" d="M249.6,-155.5C249.6,-155.5 505.9,-155.5 505.9,-155.5"/>
<polygon fill="#f0e442" stroke="#f0e442" stroke-width="2" points="505.9,-159 515.9,-155.5 505.9,-152 505.9,-159"/>
</g>
<!-- node_3b14280f -->
<g id="node4" class="node">
<title>node_3b14280f</title>
<path fill="#6db33f" stroke="black" d="M664.5,-213.5C664.5,-213.5 531.5,-213.5 531.5,-213.5 525.5,-213.5 519.5,-207.5 519.5,-201.5 519.5,-201.5 519.5,-189.5 519.5,-189.5 519.5,-183.5 525.5,-177.5 531.5,-177.5 531.5,-177.5 664.5,-177.5 664.5,-177.5 670.5,-177.5 676.5,-183.5 676.5,-189.5 676.5,-189.5 676.5,-201.5 676.5,-201.5 676.5,-207.5 670.5,-213.5 664.5,-213.5"/>
<text text-anchor="middle" x="598" y="-191.8" font-family="Times,serif" font-size="14.00">9: build_train_test()</text>
</g>
<!-- node_b5715214&#45;&gt;node_3b14280f -->
<g id="edge2" class="edge">
<title>node_b5715214&#45;&gt;node_3b14280f</title>
<path fill="none" stroke="#f0e442" stroke-width="2" d="M249.6,-182.5C249.6,-182.5 509.26,-182.5 509.26,-182.5"/>
<polygon fill="#f0e442" stroke="#f0e442" stroke-width="2" points="509.26,-186 519.26,-182.5 509.26,-179 509.26,-186"/>
</g>
<!-- node_596c7f28 -->
<g id="node5" class="node">
<title>node_596c7f28</title>
<path fill="#966f33" stroke="black" d="M1789,-1435.5C1789,-1435.5 1714,-1435.5 1714,-1435.5 1708,-1435.5 1702,-1429.5 1702,-1423.5 1702,-1423.5 1702,-1411.5 1702,-1411.5 1702,-1405.5 1708,-1399.5 1714,-1399.5 1714,-1399.5 1789,-1399.5 1789,-1399.5 1795,-1399.5 1801,-1405.5 1801,-1411.5 1801,-1411.5 1801,-1423.5 1801,-1423.5 1801,-1429.5 1795,-1435.5 1789,-1435.5"/>
<text text-anchor="middle" x="1751.5" y="-1413.8" font-family="Times,serif" font-size="14.00">0: (global)()</text>
</g>
<!-- node_feb67f15 -->
<g id="node6" class="node">
<title>node_feb67f15</title>
<path fill="#6db33f" stroke="black" d="M2105.5,-1408.5C2105.5,-1408.5 1965.5,-1408.5 1965.5,-1408.5 1959.5,-1408.5 1953.5,-1402.5 1953.5,-1396.5 1953.5,-1396.5 1953.5,-1384.5 1953.5,-1384.5 1953.5,-1378.5 1959.5,-1372.5 1965.5,-1372.5 1965.5,-1372.5 2105.5,-1372.5 2105.5,-1372.5 2111.5,-1372.5 2117.5,-1378.5 2117.5,-1384.5 2117.5,-1384.5 2117.5,-1396.5 2117.5,-1396.5 2117.5,-1402.5 2111.5,-1408.5 2105.5,-1408.5"/>
<text text-anchor="middle" x="2035.5" y="-1386.8" font-family="Times,serif" font-size="14.00">48: build_data_sets()</text>
</g>
<!-- node_596c7f28&#45;&gt;node_feb67f15 -->
<g id="edge3" class="edge">
<title>node_596c7f28&#45;&gt;node_feb67f15</title>
<path fill="none" stroke="#000000" stroke-width="2" d="M1801.29,-1404C1801.29,-1404 1943.44,-1404 1943.44,-1404"/>
<polygon fill="#000000" stroke="#000000" stroke-width="2" points="1943.44,-1407.5 1953.44,-1404 1943.44,-1400.5 1943.44,-1407.5"/>
</g>
<!-- node_1c26aba6 -->
<g id="node7" class="node">
<title>node_1c26aba6</title>
<path fill="#6db33f" stroke="black" d="M2102,-1462.5C2102,-1462.5 1969,-1462.5 1969,-1462.5 1963,-1462.5 1957,-1456.5 1957,-1450.5 1957,-1450.5 1957,-1438.5 1957,-1438.5 1957,-1432.5 1963,-1426.5 1969,-1426.5 1969,-1426.5 2102,-1426.5 2102,-1426.5 2108,-1426.5 2114,-1432.5 2114,-1438.5 2114,-1438.5 2114,-1450.5 2114,-1450.5 2114,-1456.5 2108,-1462.5 2102,-1462.5"/>
<text text-anchor="middle" x="2035.5" y="-1440.8" font-family="Times,serif" font-size="14.00">9: build_train_test()</text>
</g>
<!-- node_596c7f28&#45;&gt;node_1c26aba6 -->
<g id="edge4" class="edge">
<title>node_596c7f28&#45;&gt;node_1c26aba6</title>
<path fill="none" stroke="#000000" stroke-width="2" d="M1801.29,-1432.5C1801.29,-1432.5 1946.78,-1432.5 1946.78,-1432.5"/>
<polygon fill="#000000" stroke="#000000" stroke-width="2" points="1946.78,-1436 1956.78,-1432.5 1946.78,-1429 1946.78,-1436"/>
</g>
<!-- node_210dc915 -->
<g id="node8" class="node">
<title>node_210dc915</title>
<path fill="#966f33" stroke="black" d="M237.5,-688.5C237.5,-688.5 162.5,-688.5 162.5,-688.5 156.5,-688.5 150.5,-682.5 150.5,-676.5 150.5,-676.5 150.5,-664.5 150.5,-664.5 150.5,-658.5 156.5,-652.5 162.5,-652.5 162.5,-652.5 237.5,-652.5 237.5,-652.5 243.5,-652.5 249.5,-658.5 249.5,-664.5 249.5,-664.5 249.5,-676.5 249.5,-676.5 249.5,-682.5 243.5,-688.5 237.5,-688.5"/>
<text text-anchor="middle" x="200" y="-666.8" font-family="Times,serif" font-size="14.00">0: (global)()</text>
</g>
<!-- node_eb448e2a -->
<g id="node9" class="node">
<title>node_eb448e2a</title>
<path fill="#6db33f" stroke="black" d="M664.5,-688.5C664.5,-688.5 531.5,-688.5 531.5,-688.5 525.5,-688.5 519.5,-682.5 519.5,-676.5 519.5,-676.5 519.5,-664.5 519.5,-664.5 519.5,-658.5 525.5,-652.5 531.5,-652.5 531.5,-652.5 664.5,-652.5 664.5,-652.5 670.5,-652.5 676.5,-658.5 676.5,-664.5 676.5,-664.5 676.5,-676.5 676.5,-676.5 676.5,-682.5 670.5,-688.5 664.5,-688.5"/>
<text text-anchor="middle" x="598" y="-666.8" font-family="Times,serif" font-size="14.00">4: build_train_test()</text>
</g>
<!-- node_210dc915&#45;&gt;node_eb448e2a -->
<g id="edge5" class="edge">
<title>node_210dc915&#45;&gt;node_eb448e2a</title>
<path fill="none" stroke="#0072b2" stroke-width="2" d="M249.6,-670.5C249.6,-670.5 509.26,-670.5 509.26,-670.5"/>
<polygon fill="#0072b2" stroke="#0072b2" stroke-width="2" points="509.26,-674 519.26,-670.5 509.26,-667 509.26,-674"/>
</g>
<!-- node_9751325a -->
<g id="node10" class="node">
<title>node_9751325a</title>
<path fill="#966f33" stroke="black" d="M237.5,-788.5C237.5,-788.5 162.5,-788.5 162.5,-788.5 156.5,-788.5 150.5,-782.5 150.5,-776.5 150.5,-776.5 150.5,-764.5 150.5,-764.5 150.5,-758.5 156.5,-752.5 162.5,-752.5 162.5,-752.5 237.5,-752.5 237.5,-752.5 243.5,-752.5 249.5,-758.5 249.5,-764.5 249.5,-764.5 249.5,-776.5 249.5,-776.5 249.5,-782.5 243.5,-788.5 237.5,-788.5"/>
<text text-anchor="middle" x="200" y="-766.8" font-family="Times,serif" font-size="14.00">0: (global)()</text>
</g>
<!-- node_d5458a00 -->
<g id="node11" class="node">
<title>node_d5458a00</title>
<path fill="#6db33f" stroke="black" d="M641,-788.5C641,-788.5 555,-788.5 555,-788.5 549,-788.5 543,-782.5 543,-776.5 543,-776.5 543,-764.5 543,-764.5 543,-758.5 549,-752.5 555,-752.5 555,-752.5 641,-752.5 641,-752.5 647,-752.5 653,-758.5 653,-764.5 653,-764.5 653,-776.5 653,-776.5 653,-782.5 647,-788.5 641,-788.5"/>
<text text-anchor="middle" x="598" y="-766.8" font-family="Times,serif" font-size="14.00">6: filterLine()</text>
</g>
<!-- node_9751325a&#45;&gt;node_d5458a00 -->
<g id="edge6" class="edge">
<title>node_9751325a&#45;&gt;node_d5458a00</title>
<path fill="none" stroke="#56b4e9" stroke-width="2" d="M249.6,-770.5C249.6,-770.5 532.98,-770.5 532.98,-770.5"/>
<polygon fill="#56b4e9" stroke="#56b4e9" stroke-width="2" points="532.98,-774 542.98,-770.5 532.98,-767 532.98,-774"/>
</g>
<!-- node_d8407945 -->
<g id="node12" class="node">
<title>node_d8407945</title>
<path fill="#966f33" stroke="black" d="M237.5,-880.5C237.5,-880.5 162.5,-880.5 162.5,-880.5 156.5,-880.5 150.5,-874.5 150.5,-868.5 150.5,-868.5 150.5,-856.5 150.5,-856.5 150.5,-850.5 156.5,-844.5 162.5,-844.5 162.5,-844.5 237.5,-844.5 237.5,-844.5 243.5,-844.5 249.5,-850.5 249.5,-856.5 249.5,-856.5 249.5,-868.5 249.5,-868.5 249.5,-874.5 243.5,-880.5 237.5,-880.5"/>
<text text-anchor="middle" x="200" y="-858.8" font-family="Times,serif" font-size="14.00">0: (global)()</text>
</g>
<!-- node_74999b93 -->
<g id="node13" class="node">
<title>node_74999b93</title>
<path fill="#6db33f" stroke="black" d="M641,-880.5C641,-880.5 555,-880.5 555,-880.5 549,-880.5 543,-874.5 543,-868.5 543,-868.5 543,-856.5 543,-856.5 543,-850.5 549,-844.5 555,-844.5 555,-844.5 641,-844.5 641,-844.5 647,-844.5 653,-850.5 653,-856.5 653,-856.5 653,-868.5 653,-868.5 653,-874.5 647,-880.5 641,-880.5"/>
<text text-anchor="middle" x="598" y="-858.8" font-family="Times,serif" font-size="14.00">6: filterLine()</text>
</g>
<!-- node_d8407945&#45;&gt;node_74999b93 -->
<g id="edge7" class="edge">
<title>node_d8407945&#45;&gt;node_74999b93</title>
<path fill="none" stroke="#0072b2" stroke-width="2" d="M249.6,-862.5C249.6,-862.5 532.98,-862.5 532.98,-862.5"/>
<polygon fill="#0072b2" stroke="#0072b2" stroke-width="2" points="532.98,-866 542.98,-862.5 532.98,-859 532.98,-866"/>
</g>
<!-- node_754aea3c -->
<g id="node14" class="node">
<title>node_754aea3c</title>
<path fill="#966f33" stroke="black" d="M237.5,-1021.5C237.5,-1021.5 162.5,-1021.5 162.5,-1021.5 156.5,-1021.5 150.5,-1015.5 150.5,-1009.5 150.5,-1009.5 150.5,-997.5 150.5,-997.5 150.5,-991.5 156.5,-985.5 162.5,-985.5 162.5,-985.5 237.5,-985.5 237.5,-985.5 243.5,-985.5 249.5,-991.5 249.5,-997.5 249.5,-997.5 249.5,-1009.5 249.5,-1009.5 249.5,-1015.5 243.5,-1021.5 237.5,-1021.5"/>
<text text-anchor="middle" x="200" y="-999.8" font-family="Times,serif" font-size="14.00">0: (global)()</text>
</g>
<!-- node_645e81e1 -->
<g id="node15" class="node">
<title>node_645e81e1</title>
<path fill="#cccccc" stroke="black" d="M643.5,-1021.5C643.5,-1021.5 552.5,-1021.5 552.5,-1021.5 546.5,-1021.5 540.5,-1015.5 540.5,-1009.5 540.5,-1009.5 540.5,-997.5 540.5,-997.5 540.5,-991.5 546.5,-985.5 552.5,-985.5 552.5,-985.5 643.5,-985.5 643.5,-985.5 649.5,-985.5 655.5,-991.5 655.5,-997.5 655.5,-997.5 655.5,-1009.5 655.5,-1009.5 655.5,-1015.5 649.5,-1021.5 643.5,-1021.5"/>
<text text-anchor="middle" x="598" y="-999.8" font-family="Times,serif" font-size="14.00">34: evaluate()</text>
</g>
<!-- node_754aea3c&#45;&gt;node_645e81e1 -->
<g id="edge8" class="edge">
<title>node_754aea3c&#45;&gt;node_645e81e1</title>
<path fill="none" stroke="#f0e442" stroke-width="2" d="M249.6,-1003.5C249.6,-1003.5 530.35,-1003.5 530.35,-1003.5"/>
<polygon fill="#f0e442" stroke="#f0e442" stroke-width="2" points="530.35,-1007 540.35,-1003.5 530.35,-1000 530.35,-1007"/>
</g>
<!-- node_fd61d5e5 -->
<g id="node16" class="node">
<title>node_fd61d5e5</title>
<path fill="#6db33f" stroke="black" d="M995.5,-967.5C995.5,-967.5 855.5,-967.5 855.5,-967.5 849.5,-967.5 843.5,-961.5 843.5,-955.5 843.5,-955.5 843.5,-943.5 843.5,-943.5 843.5,-937.5 849.5,-931.5 855.5,-931.5 855.5,-931.5 995.5,-931.5 995.5,-931.5 1001.5,-931.5 1007.5,-937.5 1007.5,-943.5 1007.5,-943.5 1007.5,-955.5 1007.5,-955.5 1007.5,-961.5 1001.5,-967.5 995.5,-967.5"/>
<text text-anchor="middle" x="925.5" y="-945.8" font-family="Times,serif" font-size="14.00">15: get_coha_shifts()</text>
</g>
<!-- node_645e81e1&#45;&gt;node_fd61d5e5 -->
<g id="edge9" class="edge">
<title>node_645e81e1&#45;&gt;node_fd61d5e5</title>
<path fill="none" stroke="#e69f00" stroke-width="2" d="M598,-985.22C598,-969.55 598,-949.5 598,-949.5 598,-949.5 833.28,-949.5 833.28,-949.5"/>
<polygon fill="#e69f00" stroke="#e69f00" stroke-width="2" points="833.28,-953 843.28,-949.5 833.28,-946 833.28,-953"/>
</g>
<!-- node_bc10c9ef -->
<g id="node17" class="node">
<title>node_bc10c9ef</title>
<path fill="#6db33f" stroke="black" d="M993,-1021.5C993,-1021.5 858,-1021.5 858,-1021.5 852,-1021.5 846,-1015.5 846,-1009.5 846,-1009.5 846,-997.5 846,-997.5 846,-991.5 852,-985.5 858,-985.5 858,-985.5 993,-985.5 993,-985.5 999,-985.5 1005,-991.5 1005,-997.5 1005,-997.5 1005,-1009.5 1005,-1009.5 1005,-1015.5 999,-1021.5 993,-1021.5"/>
<text text-anchor="middle" x="925.5" y="-999.8" font-family="Times,serif" font-size="14.00">7: get_durel_shifts()</text>
</g>
<!-- node_645e81e1&#45;&gt;node_bc10c9ef -->
<g id="edge10" class="edge">
<title>node_645e81e1&#45;&gt;node_bc10c9ef</title>
<path fill="none" stroke="#e69f00" stroke-width="2" d="M655.8,-997.5C655.8,-997.5 835.86,-997.5 835.86,-997.5"/>
<polygon fill="#e69f00" stroke="#e69f00" stroke-width="2" points="835.86,-1001 845.86,-997.5 835.86,-994 835.86,-1001"/>
</g>
<!-- node_8ad47432 -->
<g id="node18" class="node">
<title>node_8ad47432</title>
<path fill="#6db33f" stroke="black" d="M1008,-1075.5C1008,-1075.5 843,-1075.5 843,-1075.5 837,-1075.5 831,-1069.5 831,-1063.5 831,-1063.5 831,-1051.5 831,-1051.5 831,-1045.5 837,-1039.5 843,-1039.5 843,-1039.5 1008,-1039.5 1008,-1039.5 1014,-1039.5 1020,-1045.5 1020,-1051.5 1020,-1051.5 1020,-1063.5 1020,-1063.5 1020,-1069.5 1014,-1075.5 1008,-1075.5"/>
<text text-anchor="middle" x="925.5" y="-1053.8" font-family="Times,serif" font-size="14.00">23: get_semeval_shifts()</text>
</g>
<!-- node_645e81e1&#45;&gt;node_8ad47432 -->
<g id="edge11" class="edge">
<title>node_645e81e1&#45;&gt;node_8ad47432</title>
<path fill="none" stroke="#e69f00" stroke-width="2" d="M655.79,-1009.5C726.81,-1009.5 838,-1009.5 838,-1009.5 838,-1009.5 838,-1029.35 838,-1029.35"/>
<polygon fill="#e69f00" stroke="#e69f00" stroke-width="2" points="834.5,-1029.35 838,-1039.35 841.5,-1029.35 834.5,-1029.35"/>
</g>
<!-- node_c9dbbd5b -->
<g id="node19" class="node">
<title>node_c9dbbd5b</title>
<path fill="#966f33" stroke="black" d="M237.5,-469.5C237.5,-469.5 162.5,-469.5 162.5,-469.5 156.5,-469.5 150.5,-463.5 150.5,-457.5 150.5,-457.5 150.5,-445.5 150.5,-445.5 150.5,-439.5 156.5,-433.5 162.5,-433.5 162.5,-433.5 237.5,-433.5 237.5,-433.5 243.5,-433.5 249.5,-439.5 249.5,-445.5 249.5,-445.5 249.5,-457.5 249.5,-457.5 249.5,-463.5 243.5,-469.5 237.5,-469.5"/>
<text text-anchor="middle" x="200" y="-447.8" font-family="Times,serif" font-size="14.00">0: (global)()</text>
</g>
<!-- node_14b4264b -->
<g id="node32" class="node">
<title>node_14b4264b</title>
<path fill="#cccccc" stroke="black" d="M635,-469.5C635,-469.5 561,-469.5 561,-469.5 555,-469.5 549,-463.5 549,-457.5 549,-457.5 549,-445.5 549,-445.5 549,-439.5 555,-433.5 561,-433.5 561,-433.5 635,-433.5 635,-433.5 641,-433.5 647,-439.5 647,-445.5 647,-445.5 647,-457.5 647,-457.5 647,-463.5 641,-469.5 635,-469.5"/>
<text text-anchor="middle" x="598" y="-447.8" font-family="Times,serif" font-size="14.00">760: main()</text>
</g>
<!-- node_c9dbbd5b&#45;&gt;node_14b4264b -->
<g id="edge12" class="edge">
<title>node_c9dbbd5b&#45;&gt;node_14b4264b</title>
<path fill="none" stroke="#009e73" stroke-width="2" d="M249.6,-451.5C249.6,-451.5 538.71,-451.5 538.71,-451.5"/>
<polygon fill="#009e73" stroke="#009e73" stroke-width="2" points="538.71,-455 548.71,-451.5 538.71,-448 538.71,-455"/>
</g>
<!-- node_ef36fb78 -->
<g id="node20" class="node">
<title>node_ef36fb78</title>
<path fill="#cccccc" stroke="black" d="M1796.5,-387.5C1796.5,-387.5 1706.5,-387.5 1706.5,-387.5 1700.5,-387.5 1694.5,-381.5 1694.5,-375.5 1694.5,-375.5 1694.5,-363.5 1694.5,-363.5 1694.5,-357.5 1700.5,-351.5 1706.5,-351.5 1706.5,-351.5 1796.5,-351.5 1796.5,-351.5 1802.5,-351.5 1808.5,-357.5 1808.5,-363.5 1808.5,-363.5 1808.5,-375.5 1808.5,-375.5 1808.5,-381.5 1802.5,-387.5 1796.5,-387.5"/>
<text text-anchor="middle" x="1751.5" y="-365.8" font-family="Times,serif" font-size="14.00">112: __init__()</text>
</g>
<!-- node_756f1d7b -->
<g id="node23" class="node">
<title>node_756f1d7b</title>
<path fill="#cccccc" stroke="black" d="M2151,-387.5C2151,-387.5 1920,-387.5 1920,-387.5 1914,-387.5 1908,-381.5 1908,-375.5 1908,-375.5 1908,-363.5 1908,-363.5 1908,-357.5 1914,-351.5 1920,-351.5 1920,-351.5 2151,-351.5 2151,-351.5 2157,-351.5 2163,-357.5 2163,-363.5 2163,-363.5 2163,-375.5 2163,-375.5 2163,-381.5 2157,-387.5 2151,-387.5"/>
<text text-anchor="middle" x="2035.5" y="-365.8" font-family="Times,serif" font-size="14.00">134: custom_batch_encode_plus()</text>
</g>
<!-- node_ef36fb78&#45;&gt;node_756f1d7b -->
<g id="edge13" class="edge">
<title>node_ef36fb78&#45;&gt;node_756f1d7b</title>
<path fill="none" stroke="#000000" stroke-width="2" d="M1808.63,-369.5C1808.63,-369.5 1897.75,-369.5 1897.75,-369.5"/>
<polygon fill="#000000" stroke="#000000" stroke-width="2" points="1897.75,-373 1907.75,-369.5 1897.75,-366 1897.75,-373"/>
</g>
<!-- node_c61bee19 -->
<g id="node21" class="node">
<title>node_c61bee19</title>
<path fill="#6db33f" stroke="black" d="M2798.5,-387.5C2798.5,-387.5 2523.5,-387.5 2523.5,-387.5 2517.5,-387.5 2511.5,-381.5 2511.5,-375.5 2511.5,-375.5 2511.5,-363.5 2511.5,-363.5 2511.5,-357.5 2517.5,-351.5 2523.5,-351.5 2523.5,-351.5 2798.5,-351.5 2798.5,-351.5 2804.5,-351.5 2810.5,-357.5 2810.5,-363.5 2810.5,-363.5 2810.5,-375.5 2810.5,-375.5 2810.5,-381.5 2804.5,-387.5 2798.5,-387.5"/>
<text text-anchor="middle" x="2661" y="-365.8" font-family="Times,serif" font-size="14.00">386: build_inputs_with_special_tokens()</text>
</g>
<!-- node_53731c71 -->
<g id="node22" class="node">
<title>node_53731c71</title>
<path fill="#6db33f" stroke="black" d="M2820,-441.5C2820,-441.5 2502,-441.5 2502,-441.5 2496,-441.5 2490,-435.5 2490,-429.5 2490,-429.5 2490,-417.5 2490,-417.5 2490,-411.5 2496,-405.5 2502,-405.5 2502,-405.5 2820,-405.5 2820,-405.5 2826,-405.5 2832,-411.5 2832,-417.5 2832,-417.5 2832,-429.5 2832,-429.5 2832,-435.5 2826,-441.5 2820,-441.5"/>
<text text-anchor="middle" x="2661" y="-419.8" font-family="Times,serif" font-size="14.00">392: create_token_type_ids_from_sequences()</text>
</g>
<!-- node_0c4f578e -->
<g id="node24" class="node">
<title>node_0c4f578e</title>
<path fill="#cccccc" stroke="black" d="M2442,-414.5C2442,-414.5 2211,-414.5 2211,-414.5 2205,-414.5 2199,-408.5 2199,-402.5 2199,-402.5 2199,-390.5 2199,-390.5 2199,-384.5 2205,-378.5 2211,-378.5 2211,-378.5 2442,-378.5 2442,-378.5 2448,-378.5 2454,-384.5 2454,-390.5 2454,-390.5 2454,-402.5 2454,-402.5 2454,-408.5 2448,-414.5 2442,-414.5"/>
<text text-anchor="middle" x="2326.5" y="-392.8" font-family="Times,serif" font-size="14.00">226: custom_prepare_for_model()</text>
</g>
<!-- node_756f1d7b&#45;&gt;node_0c4f578e -->
<g id="edge14" class="edge">
<title>node_756f1d7b&#45;&gt;node_0c4f578e</title>
<path fill="none" stroke="#009e73" stroke-width="2" d="M2163.14,-383C2163.14,-383 2188.57,-383 2188.57,-383"/>
<polygon fill="#009e73" stroke="#009e73" stroke-width="2" points="2188.57,-386.5 2198.57,-383 2188.57,-379.5 2188.57,-386.5"/>
</g>
<!-- node_0c4f578e&#45;&gt;node_c61bee19 -->
<g id="edge15" class="edge">
<title>node_0c4f578e&#45;&gt;node_c61bee19</title>
<path fill="none" stroke="#d55e00" stroke-width="2" d="M2454.39,-383C2454.39,-383 2501.35,-383 2501.35,-383"/>
<polygon fill="#d55e00" stroke="#d55e00" stroke-width="2" points="2501.35,-386.5 2511.35,-383 2501.35,-379.5 2501.35,-386.5"/>
</g>
<!-- node_0c4f578e&#45;&gt;node_53731c71 -->
<g id="edge16" class="edge">
<title>node_0c4f578e&#45;&gt;node_53731c71</title>
<path fill="none" stroke="#d55e00" stroke-width="2" d="M2454.39,-410C2454.39,-410 2479.81,-410 2479.81,-410"/>
<polygon fill="#d55e00" stroke="#d55e00" stroke-width="2" points="2479.81,-413.5 2489.81,-410 2479.81,-406.5 2479.81,-413.5"/>
</g>
<!-- node_57b1802a -->
<g id="node25" class="node">
<title>node_57b1802a</title>
<path fill="#6db33f" stroke="black" d="M2751.5,-495.5C2751.5,-495.5 2570.5,-495.5 2570.5,-495.5 2564.5,-495.5 2558.5,-489.5 2558.5,-483.5 2558.5,-483.5 2558.5,-471.5 2558.5,-471.5 2558.5,-465.5 2564.5,-459.5 2570.5,-459.5 2570.5,-459.5 2751.5,-459.5 2751.5,-459.5 2757.5,-459.5 2763.5,-465.5 2763.5,-471.5 2763.5,-471.5 2763.5,-483.5 2763.5,-483.5 2763.5,-489.5 2757.5,-495.5 2751.5,-495.5"/>
<text text-anchor="middle" x="2661" y="-473.8" font-family="Times,serif" font-size="14.00">340: truncate_sequences()</text>
</g>
<!-- node_0c4f578e&#45;&gt;node_57b1802a -->
<g id="edge17" class="edge">
<title>node_0c4f578e&#45;&gt;node_57b1802a</title>
<path fill="none" stroke="#d55e00" stroke-width="2" d="M2327,-414.59C2327,-438.6 2327,-478 2327,-478 2327,-478 2548.06,-478 2548.06,-478"/>
<polygon fill="#d55e00" stroke="#d55e00" stroke-width="2" points="2548.06,-481.5 2558.06,-478 2548.06,-474.5 2548.06,-481.5"/>
</g>
<!-- node_f580485a -->
<g id="node26" class="node">
<title>node_f580485a</title>
<path fill="#cccccc" stroke="black" d="M1792,-304.5C1792,-304.5 1711,-304.5 1711,-304.5 1705,-304.5 1699,-298.5 1699,-292.5 1699,-292.5 1699,-280.5 1699,-280.5 1699,-274.5 1705,-268.5 1711,-268.5 1711,-268.5 1792,-268.5 1792,-268.5 1798,-268.5 1804,-274.5 1804,-280.5 1804,-280.5 1804,-292.5 1804,-292.5 1804,-298.5 1798,-304.5 1792,-304.5"/>
<text text-anchor="middle" x="1751.5" y="-282.8" font-family="Times,serif" font-size="14.00">71: __init__()</text>
</g>
<!-- node_f580485a&#45;&gt;node_c61bee19 -->
<g id="edge18" class="edge">
<title>node_f580485a&#45;&gt;node_c61bee19</title>
<path fill="none" stroke="#56b4e9" stroke-width="2" d="M1804.33,-286.5C1998.44,-286.5 2661,-286.5 2661,-286.5 2661,-286.5 2661,-341.49 2661,-341.49"/>
<polygon fill="#56b4e9" stroke="#56b4e9" stroke-width="2" points="2657.5,-341.49 2661,-351.49 2664.5,-341.49 2657.5,-341.49"/>
</g>
<!-- node_d6fd4915 -->
<g id="node27" class="node">
<title>node_d6fd4915</title>
<path fill="#cccccc" stroke="black" d="M1283.5,-550.5C1283.5,-550.5 1102.5,-550.5 1102.5,-550.5 1096.5,-550.5 1090.5,-544.5 1090.5,-538.5 1090.5,-538.5 1090.5,-526.5 1090.5,-526.5 1090.5,-520.5 1096.5,-514.5 1102.5,-514.5 1102.5,-514.5 1283.5,-514.5 1283.5,-514.5 1289.5,-514.5 1295.5,-520.5 1295.5,-526.5 1295.5,-526.5 1295.5,-538.5 1295.5,-538.5 1295.5,-544.5 1289.5,-550.5 1283.5,-550.5"/>
<text text-anchor="middle" x="1193" y="-528.8" font-family="Times,serif" font-size="14.00">432: _rotate_checkpoints()</text>
</g>
<!-- node_49efc088 -->
<g id="node28" class="node">
<title>node_49efc088</title>
<path fill="#6db33f" stroke="black" d="M1562.5,-405.5C1562.5,-405.5 1379.5,-405.5 1379.5,-405.5 1373.5,-405.5 1367.5,-399.5 1367.5,-393.5 1367.5,-393.5 1367.5,-381.5 1367.5,-381.5 1367.5,-375.5 1373.5,-369.5 1379.5,-369.5 1379.5,-369.5 1562.5,-369.5 1562.5,-369.5 1568.5,-369.5 1574.5,-375.5 1574.5,-381.5 1574.5,-381.5 1574.5,-393.5 1574.5,-393.5 1574.5,-399.5 1568.5,-405.5 1562.5,-405.5"/>
<text text-anchor="middle" x="1471" y="-383.8" font-family="Times,serif" font-size="14.00">414: _sorted_checkpoints()</text>
</g>
<!-- node_d6fd4915&#45;&gt;node_49efc088 -->
<g id="edge19" class="edge">
<title>node_d6fd4915&#45;&gt;node_49efc088</title>
<path fill="none" stroke="#0072b2" stroke-width="2" d="M1295.75,-524.5C1341.39,-524.5 1385,-524.5 1385,-524.5 1385,-524.5 1385,-415.69 1385,-415.69"/>
<polygon fill="#0072b2" stroke="#0072b2" stroke-width="2" points="1388.5,-415.69 1385,-405.69 1381.5,-415.69 1388.5,-415.69"/>
</g>
<!-- node_55cb085b -->
<g id="node29" class="node">
<title>node_55cb085b</title>
<path fill="#cccccc" stroke="black" d="M1243,-442.5C1243,-442.5 1143,-442.5 1143,-442.5 1137,-442.5 1131,-436.5 1131,-430.5 1131,-430.5 1131,-418.5 1131,-418.5 1131,-412.5 1137,-406.5 1143,-406.5 1143,-406.5 1243,-406.5 1243,-406.5 1249,-406.5 1255,-412.5 1255,-418.5 1255,-418.5 1255,-430.5 1255,-430.5 1255,-436.5 1249,-442.5 1243,-442.5"/>
<text text-anchor="middle" x="1193" y="-420.8" font-family="Times,serif" font-size="14.00">697: evaluate()</text>
</g>
<!-- node_5cad7b48 -->
<g id="node31" class="node">
<title>node_5cad7b48</title>
<path fill="#cccccc" stroke="black" d="M1583,-351.5C1583,-351.5 1359,-351.5 1359,-351.5 1353,-351.5 1347,-345.5 1347,-339.5 1347,-339.5 1347,-327.5 1347,-327.5 1347,-321.5 1353,-315.5 1359,-315.5 1359,-315.5 1583,-315.5 1583,-315.5 1589,-315.5 1595,-321.5 1595,-327.5 1595,-327.5 1595,-339.5 1595,-339.5 1595,-345.5 1589,-351.5 1583,-351.5"/>
<text text-anchor="middle" x="1471" y="-329.8" font-family="Times,serif" font-size="14.00">398: load_and_cache_examples()</text>
</g>
<!-- node_55cb085b&#45;&gt;node_5cad7b48 -->
<g id="edge20" class="edge">
<title>node_55cb085b&#45;&gt;node_5cad7b48</title>
<path fill="none" stroke="#009e73" stroke-width="2" d="M1255.38,-410.5C1299.93,-410.5 1352,-410.5 1352,-410.5 1352,-410.5 1352,-361.75 1352,-361.75"/>
<polygon fill="#009e73" stroke="#009e73" stroke-width="2" points="1355.5,-361.75 1352,-351.75 1348.5,-361.75 1355.5,-361.75"/>
</g>
<!-- node_90be8e84 -->
<g id="node33" class="node">
<title>node_90be8e84</title>
<path fill="#cccccc" stroke="black" d="M1536.5,-570.5C1536.5,-570.5 1405.5,-570.5 1405.5,-570.5 1399.5,-570.5 1393.5,-564.5 1393.5,-558.5 1393.5,-558.5 1393.5,-546.5 1393.5,-546.5 1393.5,-540.5 1399.5,-534.5 1405.5,-534.5 1405.5,-534.5 1536.5,-534.5 1536.5,-534.5 1542.5,-534.5 1548.5,-540.5 1548.5,-546.5 1548.5,-546.5 1548.5,-558.5 1548.5,-558.5 1548.5,-564.5 1542.5,-570.5 1536.5,-570.5"/>
<text text-anchor="middle" x="1471" y="-548.8" font-family="Times,serif" font-size="14.00">454: mask_tokens()</text>
</g>
<!-- node_55cb085b&#45;&gt;node_90be8e84 -->
<g id="edge21" class="edge">
<title>node_55cb085b&#45;&gt;node_90be8e84</title>
<path fill="none" stroke="#009e73" stroke-width="2" d="M1255.04,-428C1336.98,-428 1471,-428 1471,-428 1471,-428 1471,-524.4 1471,-524.4"/>
<polygon fill="#009e73" stroke="#009e73" stroke-width="2" points="1467.5,-524.4 1471,-534.4 1474.5,-524.4 1467.5,-524.4"/>
</g>
<!-- node_165740db -->
<g id="node30" class="node">
<title>node_165740db</title>
<path fill="#6db33f" stroke="black" d="M1860,-570.5C1860,-570.5 1643,-570.5 1643,-570.5 1637,-570.5 1631,-564.5 1631,-558.5 1631,-558.5 1631,-546.5 1631,-546.5 1631,-540.5 1637,-534.5 1643,-534.5 1643,-534.5 1860,-534.5 1860,-534.5 1866,-534.5 1872,-540.5 1872,-546.5 1872,-546.5 1872,-558.5 1872,-558.5 1872,-564.5 1866,-570.5 1860,-570.5"/>
<text text-anchor="middle" x="1751.5" y="-548.8" font-family="Times,serif" font-size="14.00">449: get_special_tokens_mask()</text>
</g>
<!-- node_5cad7b48&#45;&gt;node_ef36fb78 -->
<g id="edge22" class="edge">
<title>node_5cad7b48&#45;&gt;node_ef36fb78</title>
<path fill="none" stroke="#000000" stroke-width="2" d="M1588,-351.66C1588,-356.54 1588,-360.5 1588,-360.5 1588,-360.5 1684.32,-360.5 1684.32,-360.5"/>
<polygon fill="#000000" stroke="#000000" stroke-width="2" points="1684.32,-364 1694.32,-360.5 1684.32,-357 1684.32,-364"/>
</g>
<!-- node_5cad7b48&#45;&gt;node_f580485a -->
<g id="edge23" class="edge">
<title>node_5cad7b48&#45;&gt;node_f580485a</title>
<path fill="none" stroke="#000000" stroke-width="2" d="M1595.07,-333.5C1670.34,-333.5 1752,-333.5 1752,-333.5 1752,-333.5 1752,-314.54 1752,-314.54"/>
<polygon fill="#000000" stroke="#000000" stroke-width="2" points="1755.5,-314.54 1752,-304.54 1748.5,-314.54 1755.5,-314.54"/>
</g>
<!-- node_14b4264b&#45;&gt;node_49efc088 -->
<g id="edge24" class="edge">
<title>node_14b4264b&#45;&gt;node_49efc088</title>
<path fill="none" stroke="#009e73" stroke-width="2" d="M647.03,-453.83C817.92,-453.83 1377,-453.83 1377,-453.83 1377,-453.83 1377,-415.63 1377,-415.63"/>
<polygon fill="#009e73" stroke="#009e73" stroke-width="2" points="1380.5,-415.63 1377,-405.63 1373.5,-415.63 1380.5,-415.63"/>
</g>
<!-- node_14b4264b&#45;&gt;node_55cb085b -->
<g id="edge25" class="edge">
<title>node_14b4264b&#45;&gt;node_55cb085b</title>
<path fill="none" stroke="#009e73" stroke-width="2" d="M647.2,-436.5C647.2,-436.5 1120.56,-436.5 1120.56,-436.5"/>
<polygon fill="#009e73" stroke="#009e73" stroke-width="2" points="1120.56,-440 1130.56,-436.5 1120.56,-433 1120.56,-440"/>
</g>
<!-- node_14b4264b&#45;&gt;node_5cad7b48 -->
<g id="edge26" class="edge">
<title>node_14b4264b&#45;&gt;node_5cad7b48</title>
<path fill="none" stroke="#009e73" stroke-width="2" d="M647.22,-448.17C815.41,-448.17 1357,-448.17 1357,-448.17 1357,-448.17 1357,-361.67 1357,-361.67"/>
<polygon fill="#009e73" stroke="#009e73" stroke-width="2" points="1360.5,-361.67 1357,-351.67 1353.5,-361.67 1360.5,-361.67"/>
</g>
<!-- node_81419e99 -->
<g id="node34" class="node">
<title>node_81419e99</title>
<path fill="#6db33f" stroke="black" d="M1243.5,-496.5C1243.5,-496.5 1142.5,-496.5 1142.5,-496.5 1136.5,-496.5 1130.5,-490.5 1130.5,-484.5 1130.5,-484.5 1130.5,-472.5 1130.5,-472.5 1130.5,-466.5 1136.5,-460.5 1142.5,-460.5 1142.5,-460.5 1243.5,-460.5 1243.5,-460.5 1249.5,-460.5 1255.5,-466.5 1255.5,-472.5 1255.5,-472.5 1255.5,-484.5 1255.5,-484.5 1255.5,-490.5 1249.5,-496.5 1243.5,-496.5"/>
<text text-anchor="middle" x="1193" y="-474.8" font-family="Times,serif" font-size="14.00">406: set_seed()</text>
</g>
<!-- node_14b4264b&#45;&gt;node_81419e99 -->
<g id="edge27" class="edge">
<title>node_14b4264b&#45;&gt;node_81419e99</title>
<path fill="none" stroke="#009e73" stroke-width="2" d="M647.2,-463.5C647.2,-463.5 1120.09,-463.5 1120.09,-463.5"/>
<polygon fill="#009e73" stroke="#009e73" stroke-width="2" points="1120.09,-467 1130.09,-463.5 1120.09,-460 1120.09,-467"/>
</g>
<!-- node_12b89c68 -->
<g id="node35" class="node">
<title>node_12b89c68</title>
<path fill="#cccccc" stroke="black" d="M962.5,-523.5C962.5,-523.5 888.5,-523.5 888.5,-523.5 882.5,-523.5 876.5,-517.5 876.5,-511.5 876.5,-511.5 876.5,-499.5 876.5,-499.5 876.5,-493.5 882.5,-487.5 888.5,-487.5 888.5,-487.5 962.5,-487.5 962.5,-487.5 968.5,-487.5 974.5,-493.5 974.5,-499.5 974.5,-499.5 974.5,-511.5 974.5,-511.5 974.5,-517.5 968.5,-523.5 962.5,-523.5"/>
<text text-anchor="middle" x="925.5" y="-501.8" font-family="Times,serif" font-size="14.00">498: train()</text>
</g>
<!-- node_14b4264b&#45;&gt;node_12b89c68 -->
<g id="edge28" class="edge">
<title>node_14b4264b&#45;&gt;node_12b89c68</title>
<path fill="none" stroke="#009e73" stroke-width="2" d="M647.09,-466.5C734.96,-466.5 910,-466.5 910,-466.5 910,-466.5 910,-477.37 910,-477.37"/>
<polygon fill="#009e73" stroke="#009e73" stroke-width="2" points="906.5,-477.37 910,-487.37 913.5,-477.37 906.5,-477.37"/>
</g>
<!-- node_90be8e84&#45;&gt;node_165740db -->
<g id="edge29" class="edge">
<title>node_90be8e84&#45;&gt;node_165740db</title>
<path fill="none" stroke="#f0e442" stroke-width="2" d="M1548.76,-552.5C1548.76,-552.5 1620.97,-552.5 1620.97,-552.5"/>
<polygon fill="#f0e442" stroke="#f0e442" stroke-width="2" points="1620.97,-556 1630.97,-552.5 1620.97,-549 1620.97,-556"/>
</g>
<!-- node_12b89c68&#45;&gt;node_d6fd4915 -->
<g id="edge30" class="edge">
<title>node_12b89c68&#45;&gt;node_d6fd4915</title>
<path fill="none" stroke="#000000" stroke-width="2" d="M974.56,-519C974.56,-519 1080.23,-519 1080.23,-519"/>
<polygon fill="#000000" stroke="#000000" stroke-width="2" points="1080.23,-522.5 1090.23,-519 1080.23,-515.5 1080.23,-522.5"/>
</g>
<!-- node_12b89c68&#45;&gt;node_55cb085b -->
<g id="edge31" class="edge">
<title>node_12b89c68&#45;&gt;node_55cb085b</title>
<path fill="none" stroke="#000000" stroke-width="2" d="M942,-487.47C942,-467.92 942,-439.5 942,-439.5 942,-439.5 1120.96,-439.5 1120.96,-439.5"/>
<polygon fill="#000000" stroke="#000000" stroke-width="2" points="1120.96,-443 1130.96,-439.5 1120.96,-436 1120.96,-443"/>
</g>
<!-- node_12b89c68&#45;&gt;node_90be8e84 -->
<g id="edge32" class="edge">
<title>node_12b89c68&#45;&gt;node_90be8e84</title>
<path fill="none" stroke="#000000" stroke-width="2" d="M942,-523.51C942,-539.55 942,-560.5 942,-560.5 942,-560.5 1383.23,-560.5 1383.23,-560.5"/>
<polygon fill="#000000" stroke="#000000" stroke-width="2" points="1383.23,-564 1393.23,-560.5 1383.23,-557 1383.23,-564"/>
</g>
<!-- node_12b89c68&#45;&gt;node_81419e99 -->
<g id="edge33" class="edge">
<title>node_12b89c68&#45;&gt;node_81419e99</title>
<path fill="none" stroke="#000000" stroke-width="2" d="M974.56,-492C974.56,-492 1120.08,-492 1120.08,-492"/>
<polygon fill="#000000" stroke="#000000" stroke-width="2" points="1120.08,-495.5 1130.08,-492 1120.08,-488.5 1120.08,-495.5"/>
</g>
<!-- node_51098d61 -->
<g id="node43" class="node">
<title>node_51098d61</title>
<path fill="#6db33f" stroke="black" d="M1230,-779.5C1230,-779.5 1156,-779.5 1156,-779.5 1150,-779.5 1144,-773.5 1144,-767.5 1144,-767.5 1144,-755.5 1144,-755.5 1144,-749.5 1150,-743.5 1156,-743.5 1156,-743.5 1230,-743.5 1230,-743.5 1236,-743.5 1242,-749.5 1242,-755.5 1242,-755.5 1242,-767.5 1242,-767.5 1242,-773.5 1236,-779.5 1230,-779.5"/>
<text text-anchor="middle" x="1193" y="-757.8" font-family="Times,serif" font-size="14.00">243: train()</text>
</g>
<!-- node_12b89c68&#45;&gt;node_51098d61 -->
<g id="edge34" class="edge">
<title>node_12b89c68&#45;&gt;node_51098d61</title>
<path fill="none" stroke="#000000" stroke-width="2" d="M910,-523.73C910,-580.12 910,-748 910,-748 910,-748 1133.71,-748 1133.71,-748"/>
<polygon fill="#000000" stroke="#000000" stroke-width="2" points="1133.71,-751.5 1143.71,-748 1133.71,-744.5 1133.71,-751.5"/>
</g>
<!-- node_cab8a215 -->
<g id="node36" class="node">
<title>node_cab8a215</title>
<path fill="#966f33" stroke="black" d="M1230.5,-725.5C1230.5,-725.5 1155.5,-725.5 1155.5,-725.5 1149.5,-725.5 1143.5,-719.5 1143.5,-713.5 1143.5,-713.5 1143.5,-701.5 1143.5,-701.5 1143.5,-695.5 1149.5,-689.5 1155.5,-689.5 1155.5,-689.5 1230.5,-689.5 1230.5,-689.5 1236.5,-689.5 1242.5,-695.5 1242.5,-701.5 1242.5,-701.5 1242.5,-713.5 1242.5,-713.5 1242.5,-719.5 1236.5,-725.5 1230.5,-725.5"/>
<text text-anchor="middle" x="1193" y="-703.8" font-family="Times,serif" font-size="14.00">0: (global)()</text>
</g>
<!-- node_a1b18e9c -->
<g id="node53" class="node">
<title>node_a1b18e9c</title>
<path fill="#6db33f" stroke="black" d="M1508,-761.5C1508,-761.5 1434,-761.5 1434,-761.5 1428,-761.5 1422,-755.5 1422,-749.5 1422,-749.5 1422,-737.5 1422,-737.5 1422,-731.5 1428,-725.5 1434,-725.5 1434,-725.5 1508,-725.5 1508,-725.5 1514,-725.5 1520,-731.5 1520,-737.5 1520,-737.5 1520,-749.5 1520,-749.5 1520,-755.5 1514,-761.5 1508,-761.5"/>
<text text-anchor="middle" x="1471" y="-739.8" font-family="Times,serif" font-size="14.00">487: main()</text>
</g>
<!-- node_cab8a215&#45;&gt;node_a1b18e9c -->
<g id="edge35" class="edge">
<title>node_cab8a215&#45;&gt;node_a1b18e9c</title>
<path fill="none" stroke="#0072b2" stroke-width="2" d="M1193,-725.66C1193,-730.54 1193,-734.5 1193,-734.5 1193,-734.5 1411.94,-734.5 1411.94,-734.5"/>
<polygon fill="#0072b2" stroke="#0072b2" stroke-width="2" points="1411.94,-738 1421.94,-734.5 1411.94,-731 1411.94,-738"/>
</g>
<!-- node_655e9bbb -->
<g id="node37" class="node">
<title>node_655e9bbb</title>
<path fill="#6db33f" stroke="black" d="M2129.5,-727.5C2129.5,-727.5 1941.5,-727.5 1941.5,-727.5 1935.5,-727.5 1929.5,-721.5 1929.5,-715.5 1929.5,-715.5 1929.5,-703.5 1929.5,-703.5 1929.5,-697.5 1935.5,-691.5 1941.5,-691.5 1941.5,-691.5 2129.5,-691.5 2129.5,-691.5 2135.5,-691.5 2141.5,-697.5 2141.5,-703.5 2141.5,-703.5 2141.5,-715.5 2141.5,-715.5 2141.5,-721.5 2135.5,-727.5 2129.5,-727.5"/>
<text text-anchor="middle" x="2035.5" y="-705.8" font-family="Times,serif" font-size="14.00">50: _download_file_maybe()</text>
</g>
<!-- node_f9ce5d70 -->
<g id="node38" class="node">
<title>node_f9ce5d70</title>
<path fill="#6db33f" stroke="black" d="M1568.5,-653.5C1568.5,-653.5 1373.5,-653.5 1373.5,-653.5 1367.5,-653.5 1361.5,-647.5 1361.5,-641.5 1361.5,-641.5 1361.5,-629.5 1361.5,-629.5 1361.5,-623.5 1367.5,-617.5 1373.5,-617.5 1373.5,-617.5 1568.5,-617.5 1568.5,-617.5 1574.5,-617.5 1580.5,-623.5 1580.5,-629.5 1580.5,-629.5 1580.5,-641.5 1580.5,-641.5 1580.5,-647.5 1574.5,-653.5 1568.5,-653.5"/>
<text text-anchor="middle" x="1471" y="-631.8" font-family="Times,serif" font-size="14.00">73: _freeze_hashdeep_bare()</text>
</g>
<!-- node_eab6f7bd -->
<g id="node39" class="node">
<title>node_eab6f7bd</title>
<path fill="#6db33f" stroke="black" d="M1562,-707.5C1562,-707.5 1380,-707.5 1380,-707.5 1374,-707.5 1368,-701.5 1368,-695.5 1368,-695.5 1368,-683.5 1368,-683.5 1368,-677.5 1374,-671.5 1380,-671.5 1380,-671.5 1562,-671.5 1562,-671.5 1568,-671.5 1574,-677.5 1574,-683.5 1574,-683.5 1574,-695.5 1574,-695.5 1574,-701.5 1568,-707.5 1562,-707.5"/>
<text text-anchor="middle" x="1471" y="-685.8" font-family="Times,serif" font-size="14.00">66: _freeze_hashdeep_rel()</text>
</g>
<!-- node_b38b5b40 -->
<g id="node40" class="node">
<title>node_b38b5b40</title>
<path fill="#966f33" stroke="black" d="M1272,-833.5C1272,-833.5 1114,-833.5 1114,-833.5 1108,-833.5 1102,-827.5 1102,-821.5 1102,-821.5 1102,-809.5 1102,-809.5 1102,-803.5 1108,-797.5 1114,-797.5 1114,-797.5 1272,-797.5 1272,-797.5 1278,-797.5 1284,-803.5 1284,-809.5 1284,-809.5 1284,-821.5 1284,-821.5 1284,-827.5 1278,-833.5 1272,-833.5"/>
<text text-anchor="middle" x="1193" y="-811.8" font-family="Times,serif" font-size="14.00">225: download_model()</text>
</g>
<!-- node_b38b5b40&#45;&gt;node_655e9bbb -->
<g id="edge36" class="edge">
<title>node_b38b5b40&#45;&gt;node_655e9bbb</title>
<path fill="none" stroke="#000000" stroke-width="2" d="M1255,-797.34C1255,-768.76 1255,-716.5 1255,-716.5 1255,-716.5 1919.43,-716.5 1919.43,-716.5"/>
<polygon fill="#000000" stroke="#000000" stroke-width="2" points="1919.43,-720 1929.43,-716.5 1919.43,-713 1919.43,-720"/>
</g>
<!-- node_c3d241bd -->
<g id="node41" class="node">
<title>node_c3d241bd</title>
<path fill="#966f33" stroke="black" d="M1238,-941.5C1238,-941.5 1148,-941.5 1148,-941.5 1142,-941.5 1136,-935.5 1136,-929.5 1136,-929.5 1136,-917.5 1136,-917.5 1136,-911.5 1142,-905.5 1148,-905.5 1148,-905.5 1238,-905.5 1238,-905.5 1244,-905.5 1250,-911.5 1250,-917.5 1250,-917.5 1250,-929.5 1250,-929.5 1250,-935.5 1244,-941.5 1238,-941.5"/>
<text text-anchor="middle" x="1193" y="-919.8" font-family="Times,serif" font-size="14.00">297: extract()</text>
</g>
<!-- node_53273b49 -->
<g id="node59" class="node">
<title>node_53273b49</title>
<path fill="#cccccc" stroke="black" d="M1568.5,-1217.5C1568.5,-1217.5 1373.5,-1217.5 1373.5,-1217.5 1367.5,-1217.5 1361.5,-1211.5 1361.5,-1205.5 1361.5,-1205.5 1361.5,-1193.5 1361.5,-1193.5 1361.5,-1187.5 1367.5,-1181.5 1373.5,-1181.5 1373.5,-1181.5 1568.5,-1181.5 1568.5,-1181.5 1574.5,-1181.5 1580.5,-1187.5 1580.5,-1193.5 1580.5,-1193.5 1580.5,-1205.5 1580.5,-1205.5 1580.5,-1211.5 1574.5,-1217.5 1568.5,-1217.5"/>
<text text-anchor="middle" x="1471" y="-1195.8" font-family="Times,serif" font-size="14.00">208: get_slice_embeddings()</text>
</g>
<!-- node_c3d241bd&#45;&gt;node_53273b49 -->
<g id="edge37" class="edge">
<title>node_c3d241bd&#45;&gt;node_53273b49</title>
<path fill="none" stroke="#0072b2" stroke-width="2" d="M1247,-941.74C1247,-1002.61 1247,-1195 1247,-1195 1247,-1195 1351.3,-1195 1351.3,-1195"/>
<polygon fill="#0072b2" stroke="#0072b2" stroke-width="2" points="1351.3,-1198.5 1361.3,-1195 1351.3,-1191.5 1351.3,-1198.5"/>
</g>
<!-- node_8b6b36b4 -->
<g id="node42" class="node">
<title>node_8b6b36b4</title>
<path fill="#966f33" stroke="black" d="M1249,-887.5C1249,-887.5 1137,-887.5 1137,-887.5 1131,-887.5 1125,-881.5 1125,-875.5 1125,-875.5 1125,-863.5 1125,-863.5 1125,-857.5 1131,-851.5 1137,-851.5 1137,-851.5 1249,-851.5 1249,-851.5 1255,-851.5 1261,-857.5 1261,-863.5 1261,-863.5 1261,-875.5 1261,-875.5 1261,-881.5 1255,-887.5 1249,-887.5"/>
<text text-anchor="middle" x="1193" y="-865.8" font-family="Times,serif" font-size="14.00">230: prep_coha()</text>
</g>
<!-- node_e3a30f00 -->
<g id="node51" class="node">
<title>node_e3a30f00</title>
<path fill="#cccccc" stroke="black" d="M1530.5,-887.5C1530.5,-887.5 1411.5,-887.5 1411.5,-887.5 1405.5,-887.5 1399.5,-881.5 1399.5,-875.5 1399.5,-875.5 1399.5,-863.5 1399.5,-863.5 1399.5,-857.5 1405.5,-851.5 1411.5,-851.5 1411.5,-851.5 1530.5,-851.5 1530.5,-851.5 1536.5,-851.5 1542.5,-857.5 1542.5,-863.5 1542.5,-863.5 1542.5,-875.5 1542.5,-875.5 1542.5,-881.5 1536.5,-887.5 1530.5,-887.5"/>
<text text-anchor="middle" x="1471" y="-865.8" font-family="Times,serif" font-size="14.00">203: prep_slices()</text>
</g>
<!-- node_8b6b36b4&#45;&gt;node_e3a30f00 -->
<g id="edge38" class="edge">
<title>node_8b6b36b4&#45;&gt;node_e3a30f00</title>
<path fill="none" stroke="#f0e442" stroke-width="2" d="M1261.01,-869.5C1261.01,-869.5 1389.33,-869.5 1389.33,-869.5"/>
<polygon fill="#f0e442" stroke="#f0e442" stroke-width="2" points="1389.33,-873 1399.33,-869.5 1389.33,-866 1389.33,-873"/>
</g>
<!-- node_a5667821 -->
<g id="node44" class="node">
<title>node_a5667821</title>
<path fill="#cccccc" stroke="black" d="M1852.5,-1049.5C1852.5,-1049.5 1650.5,-1049.5 1650.5,-1049.5 1644.5,-1049.5 1638.5,-1043.5 1638.5,-1037.5 1638.5,-1037.5 1638.5,-1025.5 1638.5,-1025.5 1638.5,-1019.5 1644.5,-1013.5 1650.5,-1013.5 1650.5,-1013.5 1852.5,-1013.5 1852.5,-1013.5 1858.5,-1013.5 1864.5,-1019.5 1864.5,-1025.5 1864.5,-1025.5 1864.5,-1037.5 1864.5,-1037.5 1864.5,-1043.5 1858.5,-1049.5 1852.5,-1049.5"/>
<text text-anchor="middle" x="1751.5" y="-1027.8" font-family="Times,serif" font-size="14.00">144: _extract_several_slices()</text>
</g>
<!-- node_7c2cb5c4 -->
<g id="node50" class="node">
<title>node_7c2cb5c4</title>
<path fill="#6db33f" stroke="black" d="M2116,-1049.5C2116,-1049.5 1955,-1049.5 1955,-1049.5 1949,-1049.5 1943,-1043.5 1943,-1037.5 1943,-1037.5 1943,-1025.5 1943,-1025.5 1943,-1019.5 1949,-1013.5 1955,-1013.5 1955,-1013.5 2116,-1013.5 2116,-1013.5 2122,-1013.5 2128,-1019.5 2128,-1025.5 2128,-1025.5 2128,-1037.5 2128,-1037.5 2128,-1043.5 2122,-1049.5 2116,-1049.5"/>
<text text-anchor="middle" x="2035.5" y="-1027.8" font-family="Times,serif" font-size="14.00">117: extract_one_slice()</text>
</g>
<!-- node_a5667821&#45;&gt;node_7c2cb5c4 -->
<g id="edge39" class="edge">
<title>node_a5667821&#45;&gt;node_7c2cb5c4</title>
<path fill="none" stroke="#e69f00" stroke-width="2" d="M1864.56,-1031.5C1864.56,-1031.5 1932.89,-1031.5 1932.89,-1031.5"/>
<polygon fill="#e69f00" stroke="#e69f00" stroke-width="2" points="1932.89,-1035 1942.89,-1031.5 1932.89,-1028 1932.89,-1035"/>
</g>
<!-- node_6a877f78 -->
<g id="node45" class="node">
<title>node_6a877f78</title>
<path fill="#6db33f" stroke="black" d="M1819.5,-995.5C1819.5,-995.5 1683.5,-995.5 1683.5,-995.5 1677.5,-995.5 1671.5,-989.5 1671.5,-983.5 1671.5,-983.5 1671.5,-971.5 1671.5,-971.5 1671.5,-965.5 1677.5,-959.5 1683.5,-959.5 1683.5,-959.5 1819.5,-959.5 1819.5,-959.5 1825.5,-959.5 1831.5,-965.5 1831.5,-971.5 1831.5,-971.5 1831.5,-983.5 1831.5,-983.5 1831.5,-989.5 1825.5,-995.5 1819.5,-995.5"/>
<text text-anchor="middle" x="1751.5" y="-973.8" font-family="Times,serif" font-size="14.00">95: _unzip_dataset()</text>
</g>
<!-- node_4c8e94ce -->
<g id="node46" class="node">
<title>node_4c8e94ce</title>
<path fill="#cccccc" stroke="black" d="M1816.5,-887.5C1816.5,-887.5 1686.5,-887.5 1686.5,-887.5 1680.5,-887.5 1674.5,-881.5 1674.5,-875.5 1674.5,-875.5 1674.5,-863.5 1674.5,-863.5 1674.5,-857.5 1680.5,-851.5 1686.5,-851.5 1686.5,-851.5 1816.5,-851.5 1816.5,-851.5 1822.5,-851.5 1828.5,-857.5 1828.5,-863.5 1828.5,-863.5 1828.5,-875.5 1828.5,-875.5 1828.5,-881.5 1822.5,-887.5 1816.5,-887.5"/>
<text text-anchor="middle" x="1751.5" y="-865.8" font-family="Times,serif" font-size="14.00">156: build_corpus()</text>
</g>
<!-- node_4c8e94ce&#45;&gt;node_feb67f15 -->
<g id="edge40" class="edge">
<title>node_4c8e94ce&#45;&gt;node_feb67f15</title>
<path fill="none" stroke="#d55e00" stroke-width="2" d="M1828.55,-869.5C1851.19,-869.5 1870,-869.5 1870,-869.5 1870,-869.5 1870,-1386 1870,-1386 1870,-1386 1943.23,-1386 1943.23,-1386"/>
<polygon fill="#d55e00" stroke="#d55e00" stroke-width="2" points="1943.23,-1389.5 1953.23,-1386 1943.23,-1382.5 1943.23,-1389.5"/>
</g>
<!-- node_4c8e94ce&#45;&gt;node_1c26aba6 -->
<g id="edge41" class="edge">
<title>node_4c8e94ce&#45;&gt;node_1c26aba6</title>
<path fill="none" stroke="#d55e00" stroke-width="2" d="M1828.56,-878.5C1850.22,-878.5 1868,-878.5 1868,-878.5 1868,-878.5 1868,-1429.5 1868,-1429.5 1868,-1429.5 1946.65,-1429.5 1946.65,-1429.5"/>
<polygon fill="#d55e00" stroke="#d55e00" stroke-width="2" points="1946.65,-1433 1956.65,-1429.5 1946.65,-1426 1946.65,-1433"/>
</g>
<!-- node_16676e03 -->
<g id="node54" class="node">
<title>node_16676e03</title>
<path fill="#6db33f" stroke="black" d="M2094.5,-781.5C2094.5,-781.5 1976.5,-781.5 1976.5,-781.5 1970.5,-781.5 1964.5,-775.5 1964.5,-769.5 1964.5,-769.5 1964.5,-757.5 1964.5,-757.5 1964.5,-751.5 1970.5,-745.5 1976.5,-745.5 1976.5,-745.5 2094.5,-745.5 2094.5,-745.5 2100.5,-745.5 2106.5,-751.5 2106.5,-757.5 2106.5,-757.5 2106.5,-769.5 2106.5,-769.5 2106.5,-775.5 2100.5,-781.5 2094.5,-781.5"/>
<text text-anchor="middle" x="2035.5" y="-759.8" font-family="Times,serif" font-size="14.00">61: setup_punkt()</text>
</g>
<!-- node_4c8e94ce&#45;&gt;node_16676e03 -->
<g id="edge42" class="edge">
<title>node_4c8e94ce&#45;&gt;node_16676e03</title>
<path fill="none" stroke="#d55e00" stroke-width="2" d="M1828.87,-860.5C1913.11,-860.5 2036,-860.5 2036,-860.5 2036,-860.5 2036,-791.74 2036,-791.74"/>
<polygon fill="#d55e00" stroke="#d55e00" stroke-width="2" points="2039.5,-791.74 2036,-781.74 2032.5,-791.74 2039.5,-791.74"/>
</g>
<!-- node_6c4837cd -->
<g id="node47" class="node">
<title>node_6c4837cd</title>
<path fill="#6db33f" stroke="black" d="M1788.5,-941.5C1788.5,-941.5 1714.5,-941.5 1714.5,-941.5 1708.5,-941.5 1702.5,-935.5 1702.5,-929.5 1702.5,-929.5 1702.5,-917.5 1702.5,-917.5 1702.5,-911.5 1708.5,-905.5 1714.5,-905.5 1714.5,-905.5 1788.5,-905.5 1788.5,-905.5 1794.5,-905.5 1800.5,-911.5 1800.5,-917.5 1800.5,-917.5 1800.5,-929.5 1800.5,-929.5 1800.5,-935.5 1794.5,-941.5 1788.5,-941.5"/>
<text text-anchor="middle" x="1751.5" y="-919.8" font-family="Times,serif" font-size="14.00">109: clear()</text>
</g>
<!-- node_cf357ec6 -->
<g id="node48" class="node">
<title>node_cf357ec6</title>
<path fill="#cccccc" stroke="black" d="M1829.5,-833.5C1829.5,-833.5 1673.5,-833.5 1673.5,-833.5 1667.5,-833.5 1661.5,-827.5 1661.5,-821.5 1661.5,-821.5 1661.5,-809.5 1661.5,-809.5 1661.5,-803.5 1667.5,-797.5 1673.5,-797.5 1673.5,-797.5 1829.5,-797.5 1829.5,-797.5 1835.5,-797.5 1841.5,-803.5 1841.5,-809.5 1841.5,-809.5 1841.5,-821.5 1841.5,-821.5 1841.5,-827.5 1835.5,-833.5 1829.5,-833.5"/>
<text text-anchor="middle" x="1751.5" y="-811.8" font-family="Times,serif" font-size="14.00">89: download_sample()</text>
</g>
<!-- node_cf357ec6&#45;&gt;node_655e9bbb -->
<g id="edge43" class="edge">
<title>node_cf357ec6&#45;&gt;node_655e9bbb</title>
<path fill="none" stroke="#d55e00" stroke-width="2" d="M1841.53,-815.5C1888.8,-815.5 1937,-815.5 1937,-815.5 1937,-815.5 1937,-737.96 1937,-737.96"/>
<polygon fill="#d55e00" stroke="#d55e00" stroke-width="2" points="1940.5,-737.96 1937,-727.96 1933.5,-737.96 1940.5,-737.96"/>
</g>
<!-- node_2e488bf7 -->
<g id="node49" class="node">
<title>node_2e488bf7</title>
<path fill="#966f33" stroke="black" d="M1516,-1022.5C1516,-1022.5 1426,-1022.5 1426,-1022.5 1420,-1022.5 1414,-1016.5 1414,-1010.5 1414,-1010.5 1414,-998.5 1414,-998.5 1414,-992.5 1420,-986.5 1426,-986.5 1426,-986.5 1516,-986.5 1516,-986.5 1522,-986.5 1528,-992.5 1528,-998.5 1528,-998.5 1528,-1010.5 1528,-1010.5 1528,-1016.5 1522,-1022.5 1516,-1022.5"/>
<text text-anchor="middle" x="1471" y="-1000.8" font-family="Times,serif" font-size="14.00">150: extract()</text>
</g>
<!-- node_2e488bf7&#45;&gt;node_a5667821 -->
<g id="edge44" class="edge">
<title>node_2e488bf7&#45;&gt;node_a5667821</title>
<path fill="none" stroke="#cc79a7" stroke-width="2" d="M1528.1,-1018C1528.1,-1018 1628.28,-1018 1628.28,-1018"/>
<polygon fill="#cc79a7" stroke="#cc79a7" stroke-width="2" points="1628.28,-1021.5 1638.28,-1018 1628.28,-1014.5 1628.28,-1021.5"/>
</g>
<!-- node_2e488bf7&#45;&gt;node_6a877f78 -->
<g id="edge45" class="edge">
<title>node_2e488bf7&#45;&gt;node_6a877f78</title>
<path fill="none" stroke="#cc79a7" stroke-width="2" d="M1528.1,-991C1528.1,-991 1661.36,-991 1661.36,-991"/>
<polygon fill="#cc79a7" stroke="#cc79a7" stroke-width="2" points="1661.36,-994.5 1671.36,-991 1661.36,-987.5 1661.36,-994.5"/>
</g>
<!-- node_e3a30f00&#45;&gt;node_4c8e94ce -->
<g id="edge46" class="edge">
<title>node_e3a30f00&#45;&gt;node_4c8e94ce</title>
<path fill="none" stroke="#000000" stroke-width="2" d="M1542.51,-875.5C1542.51,-875.5 1664.21,-875.5 1664.21,-875.5"/>
<polygon fill="#000000" stroke="#000000" stroke-width="2" points="1664.21,-879 1674.21,-875.5 1664.21,-872 1664.21,-879"/>
</g>
<!-- node_e3a30f00&#45;&gt;node_6c4837cd -->
<g id="edge47" class="edge">
<title>node_e3a30f00&#45;&gt;node_6c4837cd</title>
<path fill="none" stroke="#000000" stroke-width="2" d="M1536,-887.78C1536,-903.45 1536,-923.5 1536,-923.5 1536,-923.5 1692.33,-923.5 1692.33,-923.5"/>
<polygon fill="#000000" stroke="#000000" stroke-width="2" points="1692.33,-927 1702.33,-923.5 1692.33,-920 1692.33,-927"/>
</g>
<!-- node_e3a30f00&#45;&gt;node_cf357ec6 -->
<g id="edge49" class="edge">
<title>node_e3a30f00&#45;&gt;node_cf357ec6</title>
<path fill="none" stroke="#000000" stroke-width="2" d="M1542.59,-863.5C1598.58,-863.5 1667,-863.5 1667,-863.5 1667,-863.5 1667,-843.65 1667,-843.65"/>
<polygon fill="#000000" stroke="#000000" stroke-width="2" points="1670.5,-843.65 1667,-833.65 1663.5,-843.65 1670.5,-843.65"/>
</g>
<!-- node_6d22e98c -->
<g id="node52" class="node">
<title>node_6d22e98c</title>
<path fill="#966f33" stroke="black" d="M1267.5,-662.5C1267.5,-662.5 1118.5,-662.5 1118.5,-662.5 1112.5,-662.5 1106.5,-656.5 1106.5,-650.5 1106.5,-650.5 1106.5,-638.5 1106.5,-638.5 1106.5,-632.5 1112.5,-626.5 1118.5,-626.5 1118.5,-626.5 1267.5,-626.5 1267.5,-626.5 1273.5,-626.5 1279.5,-632.5 1279.5,-638.5 1279.5,-638.5 1279.5,-650.5 1279.5,-650.5 1279.5,-656.5 1273.5,-662.5 1267.5,-662.5"/>
<text text-anchor="middle" x="1193" y="-640.8" font-family="Times,serif" font-size="14.00">79: freeze_hashdeep()</text>
</g>
<!-- node_6d22e98c&#45;&gt;node_f9ce5d70 -->
<g id="edge50" class="edge">
<title>node_6d22e98c&#45;&gt;node_f9ce5d70</title>
<path fill="none" stroke="#f0e442" stroke-width="2" d="M1279.82,-640C1279.82,-640 1351.31,-640 1351.31,-640"/>
<polygon fill="#f0e442" stroke="#f0e442" stroke-width="2" points="1351.31,-643.5 1361.31,-640 1351.31,-636.5 1351.31,-643.5"/>
</g>
<!-- node_6d22e98c&#45;&gt;node_eab6f7bd -->
<g id="edge51" class="edge">
<title>node_6d22e98c&#45;&gt;node_eab6f7bd</title>
<path fill="none" stroke="#f0e442" stroke-width="2" d="M1268,-662.67C1268,-671.4 1268,-680 1268,-680 1268,-680 1357.72,-680 1357.72,-680"/>
<polygon fill="#f0e442" stroke="#f0e442" stroke-width="2" points="1357.72,-683.5 1367.72,-680 1357.72,-676.5 1357.72,-683.5"/>
</g>
<!-- node_371b434f -->
<g id="node55" class="node">
<title>node_371b434f</title>
<path fill="#966f33" stroke="black" d="M1230.5,-1244.5C1230.5,-1244.5 1155.5,-1244.5 1155.5,-1244.5 1149.5,-1244.5 1143.5,-1238.5 1143.5,-1232.5 1143.5,-1232.5 1143.5,-1220.5 1143.5,-1220.5 1143.5,-1214.5 1149.5,-1208.5 1155.5,-1208.5 1155.5,-1208.5 1230.5,-1208.5 1230.5,-1208.5 1236.5,-1208.5 1242.5,-1214.5 1242.5,-1220.5 1242.5,-1220.5 1242.5,-1232.5 1242.5,-1232.5 1242.5,-1238.5 1236.5,-1244.5 1230.5,-1244.5"/>
<text text-anchor="middle" x="1193" y="-1222.8" font-family="Times,serif" font-size="14.00">0: (global)()</text>
</g>
<!-- node_98b46e27 -->
<g id="node58" class="node">
<title>node_98b46e27</title>
<path fill="#6db33f" stroke="black" d="M1521,-1271.5C1521,-1271.5 1421,-1271.5 1421,-1271.5 1415,-1271.5 1409,-1265.5 1409,-1259.5 1409,-1259.5 1409,-1247.5 1409,-1247.5 1409,-1241.5 1415,-1235.5 1421,-1235.5 1421,-1235.5 1521,-1235.5 1521,-1235.5 1527,-1235.5 1533,-1241.5 1533,-1247.5 1533,-1247.5 1533,-1259.5 1533,-1259.5 1533,-1265.5 1527,-1271.5 1521,-1271.5"/>
<text text-anchor="middle" x="1471" y="-1249.8" font-family="Times,serif" font-size="14.00">27: get_shifts()</text>
</g>
<!-- node_371b434f&#45;&gt;node_98b46e27 -->
<g id="edge52" class="edge">
<title>node_371b434f&#45;&gt;node_98b46e27</title>
<path fill="none" stroke="#cc79a7" stroke-width="2" d="M1242.7,-1240C1242.7,-1240 1398.83,-1240 1398.83,-1240"/>
<polygon fill="#cc79a7" stroke="#cc79a7" stroke-width="2" points="1398.83,-1243.5 1408.83,-1240 1398.83,-1236.5 1398.83,-1243.5"/>
</g>
<!-- node_371b434f&#45;&gt;node_53273b49 -->
<g id="edge53" class="edge">
<title>node_371b434f&#45;&gt;node_53273b49</title>
<path fill="none" stroke="#cc79a7" stroke-width="2" d="M1242.7,-1213C1242.7,-1213 1351.23,-1213 1351.23,-1213"/>
<polygon fill="#cc79a7" stroke="#cc79a7" stroke-width="2" points="1351.23,-1216.5 1361.23,-1213 1351.23,-1209.5 1351.23,-1216.5"/>
</g>
<!-- node_d0b8ba02 -->
<g id="node56" class="node">
<title>node_d0b8ba02</title>
<path fill="#6db33f" stroke="black" d="M1848,-1163.5C1848,-1163.5 1655,-1163.5 1655,-1163.5 1649,-1163.5 1643,-1157.5 1643,-1151.5 1643,-1151.5 1643,-1139.5 1643,-1139.5 1643,-1133.5 1649,-1127.5 1655,-1127.5 1655,-1127.5 1848,-1127.5 1848,-1127.5 1854,-1127.5 1860,-1133.5 1860,-1139.5 1860,-1139.5 1860,-1151.5 1860,-1151.5 1860,-1157.5 1854,-1163.5 1848,-1163.5"/>
<text text-anchor="middle" x="1751.5" y="-1141.8" font-family="Times,serif" font-size="14.00">43: add_embedding_to_list()</text>
</g>
<!-- node_d656767c -->
<g id="node57" class="node">
<title>node_d656767c</title>
<path fill="#6db33f" stroke="black" d="M1791.5,-1217.5C1791.5,-1217.5 1711.5,-1217.5 1711.5,-1217.5 1705.5,-1217.5 1699.5,-1211.5 1699.5,-1205.5 1699.5,-1205.5 1699.5,-1193.5 1699.5,-1193.5 1699.5,-1187.5 1705.5,-1181.5 1711.5,-1181.5 1711.5,-1181.5 1791.5,-1181.5 1791.5,-1181.5 1797.5,-1181.5 1803.5,-1187.5 1803.5,-1193.5 1803.5,-1193.5 1803.5,-1205.5 1803.5,-1205.5 1803.5,-1211.5 1797.5,-1217.5 1791.5,-1217.5"/>
<text text-anchor="middle" x="1751.5" y="-1195.8" font-family="Times,serif" font-size="14.00">21: chunks()</text>
</g>
<!-- node_53273b49&#45;&gt;node_d0b8ba02 -->
<g id="edge54" class="edge">
<title>node_53273b49&#45;&gt;node_d0b8ba02</title>
<path fill="none" stroke="#e69f00" stroke-width="2" d="M1559,-1181.33C1559,-1165.14 1559,-1144 1559,-1144 1559,-1144 1632.87,-1144 1632.87,-1144"/>
<polygon fill="#e69f00" stroke="#e69f00" stroke-width="2" points="1632.87,-1147.5 1642.87,-1144 1632.87,-1140.5 1632.87,-1147.5"/>
</g>
<!-- node_53273b49&#45;&gt;node_d656767c -->
<g id="edge56" class="edge">
<title>node_53273b49&#45;&gt;node_d656767c</title>
<path fill="none" stroke="#e69f00" stroke-width="2" d="M1580.65,-1199.5C1580.65,-1199.5 1689.39,-1199.5 1689.39,-1199.5"/>
<polygon fill="#e69f00" stroke="#e69f00" stroke-width="2" points="1689.39,-1203 1699.39,-1199.5 1689.39,-1196 1689.39,-1203"/>
</g>
<!-- node_8be434b3 -->
<g id="node60" class="node">
<title>node_8be434b3</title>
<path fill="#6db33f" stroke="black" d="M1853,-1271.5C1853,-1271.5 1650,-1271.5 1650,-1271.5 1644,-1271.5 1638,-1265.5 1638,-1259.5 1638,-1259.5 1638,-1247.5 1638,-1247.5 1638,-1241.5 1644,-1235.5 1650,-1235.5 1650,-1235.5 1853,-1235.5 1853,-1235.5 1859,-1235.5 1865,-1241.5 1865,-1247.5 1865,-1247.5 1865,-1259.5 1865,-1259.5 1865,-1265.5 1859,-1271.5 1853,-1271.5"/>
<text text-anchor="middle" x="1751.5" y="-1249.8" font-family="Times,serif" font-size="14.00">144: get_token_embeddings()</text>
</g>
<!-- node_53273b49&#45;&gt;node_8be434b3 -->
<g id="edge57" class="edge">
<title>node_53273b49&#45;&gt;node_8be434b3</title>
<path fill="none" stroke="#e69f00" stroke-width="2" d="M1565,-1217.78C1565,-1233.45 1565,-1253.5 1565,-1253.5 1565,-1253.5 1627.91,-1253.5 1627.91,-1253.5"/>
<polygon fill="#e69f00" stroke="#e69f00" stroke-width="2" points="1627.91,-1257 1637.91,-1253.5 1627.91,-1250 1627.91,-1257"/>
</g>
<!-- node_a42fc852 -->
<g id="node61" class="node">
<title>node_a42fc852</title>
<path fill="#6db33f" stroke="black" d="M1832,-1325.5C1832,-1325.5 1671,-1325.5 1671,-1325.5 1665,-1325.5 1659,-1319.5 1659,-1313.5 1659,-1313.5 1659,-1301.5 1659,-1301.5 1659,-1295.5 1665,-1289.5 1671,-1289.5 1671,-1289.5 1832,-1289.5 1832,-1289.5 1838,-1289.5 1844,-1295.5 1844,-1301.5 1844,-1301.5 1844,-1313.5 1844,-1313.5 1844,-1319.5 1838,-1325.5 1832,-1325.5"/>
<text text-anchor="middle" x="1751.5" y="-1303.8" font-family="Times,serif" font-size="14.00">58: tokens_to_batches()</text>
</g>
<!-- node_53273b49&#45;&gt;node_a42fc852 -->
<g id="edge58" class="edge">
<title>node_53273b49&#45;&gt;node_a42fc852</title>
<path fill="none" stroke="#e69f00" stroke-width="2" d="M1549,-1217.57C1549,-1247.95 1549,-1306 1549,-1306 1549,-1306 1648.84,-1306 1648.84,-1306"/>
<polygon fill="#e69f00" stroke="#e69f00" stroke-width="2" points="1648.84,-1309.5 1658.84,-1306 1648.84,-1302.5 1648.84,-1309.5"/>
</g>
<!-- node_4bf24bc3 -->
<g id="node62" class="node">
<title>node_4bf24bc3</title>
<path fill="#966f33" stroke="black" d="M237.5,-1214.5C237.5,-1214.5 162.5,-1214.5 162.5,-1214.5 156.5,-1214.5 150.5,-1208.5 150.5,-1202.5 150.5,-1202.5 150.5,-1190.5 150.5,-1190.5 150.5,-1184.5 156.5,-1178.5 162.5,-1178.5 162.5,-1178.5 237.5,-1178.5 237.5,-1178.5 243.5,-1178.5 249.5,-1184.5 249.5,-1190.5 249.5,-1190.5 249.5,-1202.5 249.5,-1202.5 249.5,-1208.5 243.5,-1214.5 237.5,-1214.5"/>
<text text-anchor="middle" x="200" y="-1192.8" font-family="Times,serif" font-size="14.00">0: (global)()</text>
</g>
<!-- node_0a322537 -->
<g id="node65" class="node">
<title>node_0a322537</title>
<path fill="#6db33f" stroke="black" d="M654,-1187.5C654,-1187.5 542,-1187.5 542,-1187.5 536,-1187.5 530,-1181.5 530,-1175.5 530,-1175.5 530,-1163.5 530,-1163.5 530,-1157.5 536,-1151.5 542,-1151.5 542,-1151.5 654,-1151.5 654,-1151.5 660,-1151.5 666,-1157.5 666,-1163.5 666,-1163.5 666,-1175.5 666,-1175.5 666,-1181.5 660,-1187.5 654,-1187.5"/>
<text text-anchor="middle" x="598" y="-1165.8" font-family="Times,serif" font-size="14.00">24: get_targets()</text>
</g>
<!-- node_4bf24bc3&#45;&gt;node_0a322537 -->
<g id="edge59" class="edge">
<title>node_4bf24bc3&#45;&gt;node_0a322537</title>
<path fill="none" stroke="#009e73" stroke-width="2" d="M249.6,-1183C249.6,-1183 519.75,-1183 519.75,-1183"/>
<polygon fill="#009e73" stroke="#009e73" stroke-width="2" points="519.75,-1186.5 529.75,-1183 519.75,-1179.5 519.75,-1186.5"/>
</g>
<!-- node_57c9271f -->
<g id="node66" class="node">
<title>node_57c9271f</title>
<path fill="#cccccc" stroke="black" d="M695.5,-1241.5C695.5,-1241.5 500.5,-1241.5 500.5,-1241.5 494.5,-1241.5 488.5,-1235.5 488.5,-1229.5 488.5,-1229.5 488.5,-1217.5 488.5,-1217.5 488.5,-1211.5 494.5,-1205.5 500.5,-1205.5 500.5,-1205.5 695.5,-1205.5 695.5,-1205.5 701.5,-1205.5 707.5,-1211.5 707.5,-1217.5 707.5,-1217.5 707.5,-1229.5 707.5,-1229.5 707.5,-1235.5 701.5,-1241.5 695.5,-1241.5"/>
<text text-anchor="middle" x="598" y="-1219.8" font-family="Times,serif" font-size="14.00">194: get_time_embeddings()</text>
</g>
<!-- node_4bf24bc3&#45;&gt;node_57c9271f -->
<g id="edge60" class="edge">
<title>node_4bf24bc3&#45;&gt;node_57c9271f</title>
<path fill="none" stroke="#009e73" stroke-width="2" d="M249.6,-1210C249.6,-1210 478.3,-1210 478.3,-1210"/>
<polygon fill="#009e73" stroke="#009e73" stroke-width="2" points="478.3,-1213.5 488.3,-1210 478.3,-1206.5 478.3,-1213.5"/>
</g>
<!-- node_2ebcb029 -->
<g id="node63" class="node">
<title>node_2ebcb029</title>
<path fill="#6db33f" stroke="black" d="M1022,-1160.5C1022,-1160.5 829,-1160.5 829,-1160.5 823,-1160.5 817,-1154.5 817,-1148.5 817,-1148.5 817,-1136.5 817,-1136.5 817,-1130.5 823,-1124.5 829,-1124.5 829,-1124.5 1022,-1124.5 1022,-1124.5 1028,-1124.5 1034,-1130.5 1034,-1136.5 1034,-1136.5 1034,-1148.5 1034,-1148.5 1034,-1154.5 1028,-1160.5 1022,-1160.5"/>
<text text-anchor="middle" x="925.5" y="-1138.8" font-family="Times,serif" font-size="14.00">37: add_embedding_to_list()</text>
</g>
<!-- node_bbd41851 -->
<g id="node64" class="node">
<title>node_bbd41851</title>
<path fill="#6db33f" stroke="black" d="M965.5,-1214.5C965.5,-1214.5 885.5,-1214.5 885.5,-1214.5 879.5,-1214.5 873.5,-1208.5 873.5,-1202.5 873.5,-1202.5 873.5,-1190.5 873.5,-1190.5 873.5,-1184.5 879.5,-1178.5 885.5,-1178.5 885.5,-1178.5 965.5,-1178.5 965.5,-1178.5 971.5,-1178.5 977.5,-1184.5 977.5,-1190.5 977.5,-1190.5 977.5,-1202.5 977.5,-1202.5 977.5,-1208.5 971.5,-1214.5 965.5,-1214.5"/>
<text text-anchor="middle" x="925.5" y="-1192.8" font-family="Times,serif" font-size="14.00">18: chunks()</text>
</g>
<!-- node_57c9271f&#45;&gt;node_2ebcb029 -->
<g id="edge61" class="edge">
<title>node_57c9271f&#45;&gt;node_2ebcb029</title>
<path fill="none" stroke="#cc79a7" stroke-width="2" d="M694,-1205.41C694,-1185.42 694,-1156 694,-1156 694,-1156 806.87,-1156 806.87,-1156"/>
<polygon fill="#cc79a7" stroke="#cc79a7" stroke-width="2" points="806.87,-1159.5 816.87,-1156 806.87,-1152.5 806.87,-1159.5"/>
</g>
<!-- node_57c9271f&#45;&gt;node_bbd41851 -->
<g id="edge63" class="edge">
<title>node_57c9271f&#45;&gt;node_bbd41851</title>
<path fill="none" stroke="#cc79a7" stroke-width="2" d="M707.51,-1210C707.51,-1210 863.46,-1210 863.46,-1210"/>
<polygon fill="#cc79a7" stroke="#cc79a7" stroke-width="2" points="863.46,-1213.5 873.46,-1210 863.46,-1206.5 863.46,-1213.5"/>
</g>
<!-- node_4f4f9c7d -->
<g id="node67" class="node">
<title>node_4f4f9c7d</title>
<path fill="#6db33f" stroke="black" d="M1027,-1268.5C1027,-1268.5 824,-1268.5 824,-1268.5 818,-1268.5 812,-1262.5 812,-1256.5 812,-1256.5 812,-1244.5 812,-1244.5 812,-1238.5 818,-1232.5 824,-1232.5 824,-1232.5 1027,-1232.5 1027,-1232.5 1033,-1232.5 1039,-1238.5 1039,-1244.5 1039,-1244.5 1039,-1256.5 1039,-1256.5 1039,-1262.5 1033,-1268.5 1027,-1268.5"/>
<text text-anchor="middle" x="925.5" y="-1246.8" font-family="Times,serif" font-size="14.00">128: get_token_embeddings()</text>
</g>
<!-- node_57c9271f&#45;&gt;node_4f4f9c7d -->
<g id="edge64" class="edge">
<title>node_57c9271f&#45;&gt;node_4f4f9c7d</title>
<path fill="none" stroke="#cc79a7" stroke-width="2" d="M707.51,-1237C707.51,-1237 801.89,-1237 801.89,-1237"/>
<polygon fill="#cc79a7" stroke="#cc79a7" stroke-width="2" points="801.89,-1240.5 811.89,-1237 801.89,-1233.5 801.89,-1240.5"/>
</g>
<!-- node_41a59061 -->
<g id="node68" class="node">
<title>node_41a59061</title>
<path fill="#6db33f" stroke="black" d="M1006,-1322.5C1006,-1322.5 845,-1322.5 845,-1322.5 839,-1322.5 833,-1316.5 833,-1310.5 833,-1310.5 833,-1298.5 833,-1298.5 833,-1292.5 839,-1286.5 845,-1286.5 845,-1286.5 1006,-1286.5 1006,-1286.5 1012,-1286.5 1018,-1292.5 1018,-1298.5 1018,-1298.5 1018,-1310.5 1018,-1310.5 1018,-1316.5 1012,-1322.5 1006,-1322.5"/>
<text text-anchor="middle" x="925.5" y="-1300.8" font-family="Times,serif" font-size="14.00">52: tokens_to_batches()</text>
</g>
<!-- node_57c9271f&#45;&gt;node_41a59061 -->
<g id="edge65" class="edge">
<title>node_57c9271f&#45;&gt;node_41a59061</title>
<path fill="none" stroke="#cc79a7" stroke-width="2" d="M691,-1241.88C691,-1265.78 691,-1304.5 691,-1304.5 691,-1304.5 822.82,-1304.5 822.82,-1304.5"/>
<polygon fill="#cc79a7" stroke="#cc79a7" stroke-width="2" points="822.82,-1308 832.82,-1304.5 822.82,-1301 822.82,-1308"/>
</g>
<!-- node_9c3cf6b6 -->
<g id="node69" class="node">
<title>node_9c3cf6b6</title>
<path fill="#966f33" stroke="black" d="M237.5,-1462.5C237.5,-1462.5 162.5,-1462.5 162.5,-1462.5 156.5,-1462.5 150.5,-1456.5 150.5,-1450.5 150.5,-1450.5 150.5,-1438.5 150.5,-1438.5 150.5,-1432.5 156.5,-1426.5 162.5,-1426.5 162.5,-1426.5 237.5,-1426.5 237.5,-1426.5 243.5,-1426.5 249.5,-1432.5 249.5,-1438.5 249.5,-1438.5 249.5,-1450.5 249.5,-1450.5 249.5,-1456.5 243.5,-1462.5 237.5,-1462.5"/>
<text text-anchor="middle" x="200" y="-1440.8" font-family="Times,serif" font-size="14.00">0: (global)()</text>
</g>
<!-- node_7c9e683b -->
<g id="node72" class="node">
<title>node_7c9e683b</title>
<path fill="#cccccc" stroke="black" d="M661.5,-1462.5C661.5,-1462.5 534.5,-1462.5 534.5,-1462.5 528.5,-1462.5 522.5,-1456.5 522.5,-1450.5 522.5,-1450.5 522.5,-1438.5 522.5,-1438.5 522.5,-1432.5 528.5,-1426.5 534.5,-1426.5 534.5,-1426.5 661.5,-1426.5 661.5,-1426.5 667.5,-1426.5 673.5,-1432.5 673.5,-1438.5 673.5,-1438.5 673.5,-1450.5 673.5,-1450.5 673.5,-1456.5 667.5,-1462.5 661.5,-1462.5"/>
<text text-anchor="middle" x="598" y="-1440.8" font-family="Times,serif" font-size="14.00">150: full_analysis()</text>
</g>
<!-- node_9c3cf6b6&#45;&gt;node_7c9e683b -->
<g id="edge66" class="edge">
<title>node_9c3cf6b6&#45;&gt;node_7c9e683b</title>
<path fill="none" stroke="#d55e00" stroke-width="2" d="M249.6,-1444.5C249.6,-1444.5 512.2,-1444.5 512.2,-1444.5"/>
<polygon fill="#d55e00" stroke="#d55e00" stroke-width="2" points="512.2,-1448 522.2,-1444.5 512.2,-1441 512.2,-1448"/>
</g>
<!-- node_72c0b92a -->
<g id="node70" class="node">
<title>node_72c0b92a</title>
<path fill="#cccccc" stroke="black" d="M1008,-1408.5C1008,-1408.5 843,-1408.5 843,-1408.5 837,-1408.5 831,-1402.5 831,-1396.5 831,-1396.5 831,-1384.5 831,-1384.5 831,-1378.5 837,-1372.5 843,-1372.5 843,-1372.5 1008,-1372.5 1008,-1372.5 1014,-1372.5 1020,-1378.5 1020,-1384.5 1020,-1384.5 1020,-1396.5 1020,-1396.5 1020,-1402.5 1014,-1408.5 1008,-1408.5"/>
<text text-anchor="middle" x="925.5" y="-1386.8" font-family="Times,serif" font-size="14.00">100: extract_keywords()</text>
</g>
<!-- node_c7586567 -->
<g id="node71" class="node">
<title>node_c7586567</title>
<path fill="#6db33f" stroke="black" d="M1299,-1408.5C1299,-1408.5 1087,-1408.5 1087,-1408.5 1081,-1408.5 1075,-1402.5 1075,-1396.5 1075,-1396.5 1075,-1384.5 1075,-1384.5 1075,-1378.5 1081,-1372.5 1087,-1372.5 1087,-1372.5 1299,-1372.5 1299,-1372.5 1305,-1372.5 1311,-1378.5 1311,-1384.5 1311,-1384.5 1311,-1396.5 1311,-1396.5 1311,-1402.5 1305,-1408.5 1299,-1408.5"/>
<text text-anchor="middle" x="1193" y="-1386.8" font-family="Times,serif" font-size="14.00">85: extract_topn_from_vector()</text>
</g>
<!-- node_72c0b92a&#45;&gt;node_c7586567 -->
<g id="edge67" class="edge">
<title>node_72c0b92a&#45;&gt;node_c7586567</title>
<path fill="none" stroke="#56b4e9" stroke-width="2" d="M1020.19,-1390.5C1020.19,-1390.5 1065,-1390.5 1065,-1390.5"/>
<polygon fill="#56b4e9" stroke="#56b4e9" stroke-width="2" points="1065,-1394 1075,-1390.5 1065,-1387 1065,-1394"/>
</g>
<!-- node_7c9e683b&#45;&gt;node_72c0b92a -->
<g id="edge68" class="edge">
<title>node_7c9e683b&#45;&gt;node_72c0b92a</title>
<path fill="none" stroke="#009e73" stroke-width="2" d="M598,-1426.22C598,-1410.55 598,-1390.5 598,-1390.5 598,-1390.5 820.77,-1390.5 820.77,-1390.5"/>
<polygon fill="#009e73" stroke="#009e73" stroke-width="2" points="820.77,-1394 830.77,-1390.5 820.77,-1387 820.77,-1394"/>
</g>
<!-- node_fb2bbe06 -->
<g id="node73" class="node">
<title>node_fb2bbe06</title>
<path fill="#6db33f" stroke="black" d="M1003,-1462.5C1003,-1462.5 848,-1462.5 848,-1462.5 842,-1462.5 836,-1456.5 836,-1450.5 836,-1450.5 836,-1438.5 836,-1438.5 836,-1432.5 842,-1426.5 848,-1426.5 848,-1426.5 1003,-1426.5 1003,-1426.5 1009,-1426.5 1015,-1432.5 1015,-1438.5 1015,-1438.5 1015,-1450.5 1015,-1450.5 1015,-1456.5 1009,-1462.5 1003,-1462.5"/>
<text text-anchor="middle" x="925.5" y="-1440.8" font-family="Times,serif" font-size="14.00">17: get_clusters_sent()</text>
</g>
<!-- node_7c9e683b&#45;&gt;node_fb2bbe06 -->
<g id="edge69" class="edge">
<title>node_7c9e683b&#45;&gt;node_fb2bbe06</title>
<path fill="none" stroke="#009e73" stroke-width="2" d="M673.55,-1444.5C673.55,-1444.5 825.79,-1444.5 825.79,-1444.5"/>
<polygon fill="#009e73" stroke="#009e73" stroke-width="2" points="825.79,-1448 835.79,-1444.5 825.79,-1441 825.79,-1448"/>
</g>
<!-- node_375b9ae5 -->
<g id="node74" class="node">
<title>node_375b9ae5</title>
<path fill="#6db33f" stroke="black" d="M991,-1516.5C991,-1516.5 860,-1516.5 860,-1516.5 854,-1516.5 848,-1510.5 848,-1504.5 848,-1504.5 848,-1492.5 848,-1492.5 848,-1486.5 854,-1480.5 860,-1480.5 860,-1480.5 991,-1480.5 991,-1480.5 997,-1480.5 1003,-1486.5 1003,-1492.5 1003,-1492.5 1003,-1504.5 1003,-1504.5 1003,-1510.5 997,-1516.5 991,-1516.5"/>
<text text-anchor="middle" x="925.5" y="-1494.8" font-family="Times,serif" font-size="14.00">67: output_distrib()</text>
</g>
<!-- node_7c9e683b&#45;&gt;node_375b9ae5 -->
<g id="edge70" class="edge">
<title>node_7c9e683b&#45;&gt;node_375b9ae5</title>
<path fill="none" stroke="#009e73" stroke-width="2" d="M598,-1462.78C598,-1478.45 598,-1498.5 598,-1498.5 598,-1498.5 837.89,-1498.5 837.89,-1498.5"/>
<polygon fill="#009e73" stroke="#009e73" stroke-width="2" points="837.89,-1502 847.89,-1498.5 837.89,-1495 837.89,-1502"/>
</g>
<!-- node_15058d40 -->
<g id="node75" class="node">
<title>node_15058d40</title>
<path fill="#cccccc" stroke="black" d="M277,-1671.5C277,-1671.5 123,-1671.5 123,-1671.5 117,-1671.5 111,-1665.5 111,-1659.5 111,-1659.5 111,-1647.5 111,-1647.5 111,-1641.5 117,-1635.5 123,-1635.5 123,-1635.5 277,-1635.5 277,-1635.5 283,-1635.5 289,-1641.5 289,-1647.5 289,-1647.5 289,-1659.5 289,-1659.5 289,-1665.5 283,-1671.5 277,-1671.5"/>
<text text-anchor="middle" x="200" y="-1649.8" font-family="Times,serif" font-size="14.00">18: combine_clusters()</text>
</g>
<!-- node_15058d40&#45;&gt;node_15058d40 -->
<g id="edge71" class="edge">
<title>node_15058d40&#45;&gt;node_15058d40</title>
<path fill="none" stroke="#000000" stroke-width="2" d="M110.8,-1653.5C85.17,-1653.5 64,-1653.5 64,-1653.5 64,-1653.5 64,-1629.5 64,-1629.5 64,-1629.5 321,-1629.5 321,-1629.5 321,-1629.5 321,-1644.5 321,-1644.5 321,-1644.5 299.21,-1644.5 299.21,-1644.5"/>
<polygon fill="#000000" stroke="#000000" stroke-width="2" points="299.21,-1641 289.21,-1644.5 299.21,-1648 299.21,-1641"/>
</g>
<!-- node_d1be6755 -->
<g id="node76" class="node">
<title>node_d1be6755</title>
<path fill="#6db33f" stroke="black" d="M744.5,-1707.5C744.5,-1707.5 451.5,-1707.5 451.5,-1707.5 445.5,-1707.5 439.5,-1701.5 439.5,-1695.5 439.5,-1695.5 439.5,-1683.5 439.5,-1683.5 439.5,-1677.5 445.5,-1671.5 451.5,-1671.5 451.5,-1671.5 744.5,-1671.5 744.5,-1671.5 750.5,-1671.5 756.5,-1677.5 756.5,-1683.5 756.5,-1683.5 756.5,-1695.5 756.5,-1695.5 756.5,-1701.5 750.5,-1707.5 744.5,-1707.5"/>
<text text-anchor="middle" x="598" y="-1685.8" font-family="Times,serif" font-size="14.00">106: compute_averaged_embedding_dist()</text>
</g>
<!-- node_15058d40&#45;&gt;node_d1be6755 -->
<g id="edge73" class="edge">
<title>node_15058d40&#45;&gt;node_d1be6755</title>
<path fill="none" stroke="#000000" stroke-width="2" d="M289.19,-1662.5C360.64,-1662.5 449,-1662.5 449,-1662.5 449,-1662.5 449,-1663.38 449,-1663.38"/>
<polygon fill="#000000" stroke="#000000" stroke-width="2" points="445.5,-1661.34 449,-1671.34 452.5,-1661.34 445.5,-1661.34"/>
</g>
<!-- node_dff8fb3b -->
<g id="node77" class="node">
<title>node_dff8fb3b</title>
<path fill="#966f33" stroke="black" d="M372,-1608.5C372,-1608.5 28,-1608.5 28,-1608.5 22,-1608.5 16,-1602.5 16,-1596.5 16,-1596.5 16,-1584.5 16,-1584.5 16,-1578.5 22,-1572.5 28,-1572.5 28,-1572.5 372,-1572.5 372,-1572.5 378,-1572.5 384,-1578.5 384,-1584.5 384,-1584.5 384,-1596.5 384,-1596.5 384,-1602.5 378,-1608.5 372,-1608.5"/>
<text text-anchor="middle" x="200" y="-1586.8" font-family="Times,serif" font-size="14.00">164: compute_divergence_across_many_periods()</text>
</g>
<!-- node_fd4d01ee -->
<g id="node78" class="node">
<title>node_fd4d01ee</title>
<path fill="#cccccc" stroke="black" d="M764,-1599.5C764,-1599.5 432,-1599.5 432,-1599.5 426,-1599.5 420,-1593.5 420,-1587.5 420,-1587.5 420,-1575.5 420,-1575.5 420,-1569.5 426,-1563.5 432,-1563.5 432,-1563.5 764,-1563.5 764,-1563.5 770,-1563.5 776,-1569.5 776,-1575.5 776,-1575.5 776,-1587.5 776,-1587.5 776,-1593.5 770,-1599.5 764,-1599.5"/>
<text text-anchor="middle" x="598" y="-1577.8" font-family="Times,serif" font-size="14.00">114: compute_divergence_from_cluster_labels()</text>
</g>
<!-- node_dff8fb3b&#45;&gt;node_fd4d01ee -->
<g id="edge75" class="edge">
<title>node_dff8fb3b&#45;&gt;node_fd4d01ee</title>
<path fill="none" stroke="#009e73" stroke-width="2" d="M384.15,-1586C384.15,-1586 409.9,-1586 409.9,-1586"/>
<polygon fill="#009e73" stroke="#009e73" stroke-width="2" points="409.9,-1589.5 419.9,-1586 409.9,-1582.5 409.9,-1589.5"/>
</g>
<!-- node_86bc1392 -->
<g id="node80" class="node">
<title>node_86bc1392</title>
<path fill="#6db33f" stroke="black" d="M726.5,-1653.5C726.5,-1653.5 469.5,-1653.5 469.5,-1653.5 463.5,-1653.5 457.5,-1647.5 457.5,-1641.5 457.5,-1641.5 457.5,-1629.5 457.5,-1629.5 457.5,-1623.5 463.5,-1617.5 469.5,-1617.5 469.5,-1617.5 726.5,-1617.5 726.5,-1617.5 732.5,-1617.5 738.5,-1623.5 738.5,-1629.5 738.5,-1629.5 738.5,-1641.5 738.5,-1641.5 738.5,-1647.5 732.5,-1653.5 726.5,-1653.5"/>
<text text-anchor="middle" x="598" y="-1631.8" font-family="Times,serif" font-size="14.00">141: detect_meaning_gain_and_loss()</text>
</g>
<!-- node_dff8fb3b&#45;&gt;node_86bc1392 -->
<g id="edge77" class="edge">
<title>node_dff8fb3b&#45;&gt;node_86bc1392</title>
<path fill="none" stroke="#009e73" stroke-width="2" d="M353,-1608.54C353,-1616.25 353,-1623.5 353,-1623.5 353,-1623.5 447.26,-1623.5 447.26,-1623.5"/>
<polygon fill="#009e73" stroke="#009e73" stroke-width="2" points="447.26,-1627 457.26,-1623.5 447.26,-1620 447.26,-1627"/>
</g>
<!-- node_262288cc -->
<g id="node79" class="node">
<title>node_262288cc</title>
<path fill="#6db33f" stroke="black" d="M985,-1599.5C985,-1599.5 866,-1599.5 866,-1599.5 860,-1599.5 854,-1593.5 854,-1587.5 854,-1587.5 854,-1575.5 854,-1575.5 854,-1569.5 860,-1563.5 866,-1563.5 866,-1563.5 985,-1563.5 985,-1563.5 991,-1563.5 997,-1569.5 997,-1575.5 997,-1575.5 997,-1587.5 997,-1587.5 997,-1593.5 991,-1599.5 985,-1599.5"/>
<text text-anchor="middle" x="925.5" y="-1577.8" font-family="Times,serif" font-size="14.00">85: compute_jsd()</text>
</g>
<!-- node_fd4d01ee&#45;&gt;node_262288cc -->
<g id="edge79" class="edge">
<title>node_fd4d01ee&#45;&gt;node_262288cc</title>
<path fill="none" stroke="#d55e00" stroke-width="2" d="M776.13,-1581.5C776.13,-1581.5 843.74,-1581.5 843.74,-1581.5"/>
<polygon fill="#d55e00" stroke="#d55e00" stroke-width="2" points="843.74,-1585 853.74,-1581.5 843.74,-1578 843.74,-1585"/>
</g>
<!-- node_d0047cf9 -->
<g id="node81" class="node">
<title>node_d0047cf9</title>
<path fill="#cccccc" stroke="black" d="M277,-1862.5C277,-1862.5 123,-1862.5 123,-1862.5 117,-1862.5 111,-1856.5 111,-1850.5 111,-1850.5 111,-1838.5 111,-1838.5 111,-1832.5 117,-1826.5 123,-1826.5 123,-1826.5 277,-1826.5 277,-1826.5 283,-1826.5 289,-1832.5 289,-1838.5 289,-1838.5 289,-1850.5 289,-1850.5 289,-1856.5 283,-1862.5 277,-1862.5"/>
<text text-anchor="middle" x="200" y="-1840.8" font-family="Times,serif" font-size="14.00">18: combine_clusters()</text>
</g>
<!-- node_d0047cf9&#45;&gt;node_d0047cf9 -->
<g id="edge80" class="edge">
<title>node_d0047cf9&#45;&gt;node_d0047cf9</title>
<path fill="none" stroke="#e69f00" stroke-width="2" d="M110.8,-1844.5C85.17,-1844.5 64,-1844.5 64,-1844.5 64,-1844.5 64,-1820.5 64,-1820.5 64,-1820.5 321,-1820.5 321,-1820.5 321,-1820.5 321,-1835.5 321,-1835.5 321,-1835.5 299.21,-1835.5 299.21,-1835.5"/>
<polygon fill="#e69f00" stroke="#e69f00" stroke-width="2" points="299.21,-1832 289.21,-1835.5 299.21,-1839 299.21,-1832"/>
</g>
<!-- node_f8b9bc9b -->
<g id="node82" class="node">
<title>node_f8b9bc9b</title>
<path fill="#6db33f" stroke="black" d="M744.5,-1898.5C744.5,-1898.5 451.5,-1898.5 451.5,-1898.5 445.5,-1898.5 439.5,-1892.5 439.5,-1886.5 439.5,-1886.5 439.5,-1874.5 439.5,-1874.5 439.5,-1868.5 445.5,-1862.5 451.5,-1862.5 451.5,-1862.5 744.5,-1862.5 744.5,-1862.5 750.5,-1862.5 756.5,-1868.5 756.5,-1874.5 756.5,-1874.5 756.5,-1886.5 756.5,-1886.5 756.5,-1892.5 750.5,-1898.5 744.5,-1898.5"/>
<text text-anchor="middle" x="598" y="-1876.8" font-family="Times,serif" font-size="14.00">106: compute_averaged_embedding_dist()</text>
</g>
<!-- node_d0047cf9&#45;&gt;node_f8b9bc9b -->
<g id="edge82" class="edge">
<title>node_d0047cf9&#45;&gt;node_f8b9bc9b</title>
<path fill="none" stroke="#e69f00" stroke-width="2" d="M289.19,-1853.5C360.64,-1853.5 449,-1853.5 449,-1853.5 449,-1853.5 449,-1854.38 449,-1854.38"/>
<polygon fill="#e69f00" stroke="#e69f00" stroke-width="2" points="445.5,-1852.34 449,-1862.34 452.5,-1852.34 445.5,-1852.34"/>
</g>
<!-- node_842aaca1 -->
<g id="node83" class="node">
<title>node_842aaca1</title>
<path fill="#966f33" stroke="black" d="M372,-1799.5C372,-1799.5 28,-1799.5 28,-1799.5 22,-1799.5 16,-1793.5 16,-1787.5 16,-1787.5 16,-1775.5 16,-1775.5 16,-1769.5 22,-1763.5 28,-1763.5 28,-1763.5 372,-1763.5 372,-1763.5 378,-1763.5 384,-1769.5 384,-1775.5 384,-1775.5 384,-1787.5 384,-1787.5 384,-1793.5 378,-1799.5 372,-1799.5"/>
<text text-anchor="middle" x="200" y="-1777.8" font-family="Times,serif" font-size="14.00">164: compute_divergence_across_many_periods()</text>
</g>
<!-- node_9bd1cefa -->
<g id="node84" class="node">
<title>node_9bd1cefa</title>
<path fill="#cccccc" stroke="black" d="M764,-1790.5C764,-1790.5 432,-1790.5 432,-1790.5 426,-1790.5 420,-1784.5 420,-1778.5 420,-1778.5 420,-1766.5 420,-1766.5 420,-1760.5 426,-1754.5 432,-1754.5 432,-1754.5 764,-1754.5 764,-1754.5 770,-1754.5 776,-1760.5 776,-1766.5 776,-1766.5 776,-1778.5 776,-1778.5 776,-1784.5 770,-1790.5 764,-1790.5"/>
<text text-anchor="middle" x="598" y="-1768.8" font-family="Times,serif" font-size="14.00">114: compute_divergence_from_cluster_labels()</text>
</g>
<!-- node_842aaca1&#45;&gt;node_9bd1cefa -->
<g id="edge84" class="edge">
<title>node_842aaca1&#45;&gt;node_9bd1cefa</title>
<path fill="none" stroke="#e69f00" stroke-width="2" d="M384.15,-1777C384.15,-1777 409.9,-1777 409.9,-1777"/>
<polygon fill="#e69f00" stroke="#e69f00" stroke-width="2" points="409.9,-1780.5 419.9,-1777 409.9,-1773.5 409.9,-1780.5"/>
</g>
<!-- node_06be27af -->
<g id="node86" class="node">
<title>node_06be27af</title>
<path fill="#6db33f" stroke="black" d="M726.5,-1844.5C726.5,-1844.5 469.5,-1844.5 469.5,-1844.5 463.5,-1844.5 457.5,-1838.5 457.5,-1832.5 457.5,-1832.5 457.5,-1820.5 457.5,-1820.5 457.5,-1814.5 463.5,-1808.5 469.5,-1808.5 469.5,-1808.5 726.5,-1808.5 726.5,-1808.5 732.5,-1808.5 738.5,-1814.5 738.5,-1820.5 738.5,-1820.5 738.5,-1832.5 738.5,-1832.5 738.5,-1838.5 732.5,-1844.5 726.5,-1844.5"/>
<text text-anchor="middle" x="598" y="-1822.8" font-family="Times,serif" font-size="14.00">141: detect_meaning_gain_and_loss()</text>
</g>
<!-- node_842aaca1&#45;&gt;node_06be27af -->
<g id="edge86" class="edge">
<title>node_842aaca1&#45;&gt;node_06be27af</title>
<path fill="none" stroke="#e69f00" stroke-width="2" d="M353,-1799.54C353,-1807.25 353,-1814.5 353,-1814.5 353,-1814.5 447.26,-1814.5 447.26,-1814.5"/>
<polygon fill="#e69f00" stroke="#e69f00" stroke-width="2" points="447.26,-1818 457.26,-1814.5 447.26,-1811 447.26,-1818"/>
</g>
<!-- node_04dc0653 -->
<g id="node85" class="node">
<title>node_04dc0653</title>
<path fill="#6db33f" stroke="black" d="M985,-1790.5C985,-1790.5 866,-1790.5 866,-1790.5 860,-1790.5 854,-1784.5 854,-1778.5 854,-1778.5 854,-1766.5 854,-1766.5 854,-1760.5 860,-1754.5 866,-1754.5 866,-1754.5 985,-1754.5 985,-1754.5 991,-1754.5 997,-1760.5 997,-1766.5 997,-1766.5 997,-1778.5 997,-1778.5 997,-1784.5 991,-1790.5 985,-1790.5"/>
<text text-anchor="middle" x="925.5" y="-1768.8" font-family="Times,serif" font-size="14.00">85: compute_jsd()</text>
</g>
<!-- node_9bd1cefa&#45;&gt;node_04dc0653 -->
<g id="edge88" class="edge">
<title>node_9bd1cefa&#45;&gt;node_04dc0653</title>
<path fill="none" stroke="#56b4e9" stroke-width="2" d="M776.13,-1772.5C776.13,-1772.5 843.74,-1772.5 843.74,-1772.5"/>
<polygon fill="#56b4e9" stroke="#56b4e9" stroke-width="2" points="843.74,-1776 853.74,-1772.5 843.74,-1769 843.74,-1776"/>
</g>
<!-- node_a40fd6f1 -->
<g id="node87" class="node">
<title>node_a40fd6f1</title>
<path fill="#cccccc" stroke="black" d="M277,-2053.5C277,-2053.5 123,-2053.5 123,-2053.5 117,-2053.5 111,-2047.5 111,-2041.5 111,-2041.5 111,-2029.5 111,-2029.5 111,-2023.5 117,-2017.5 123,-2017.5 123,-2017.5 277,-2017.5 277,-2017.5 283,-2017.5 289,-2023.5 289,-2029.5 289,-2029.5 289,-2041.5 289,-2041.5 289,-2047.5 283,-2053.5 277,-2053.5"/>
<text text-anchor="middle" x="200" y="-2031.8" font-family="Times,serif" font-size="14.00">18: combine_clusters()</text>
</g>
<!-- node_a40fd6f1&#45;&gt;node_a40fd6f1 -->
<g id="edge89" class="edge">
<title>node_a40fd6f1&#45;&gt;node_a40fd6f1</title>
<path fill="none" stroke="#e69f00" stroke-width="2" d="M110.8,-2035.5C85.17,-2035.5 64,-2035.5 64,-2035.5 64,-2035.5 64,-2011.5 64,-2011.5 64,-2011.5 321,-2011.5 321,-2011.5 321,-2011.5 321,-2026.5 321,-2026.5 321,-2026.5 299.21,-2026.5 299.21,-2026.5"/>
<polygon fill="#e69f00" stroke="#e69f00" stroke-width="2" points="299.21,-2023 289.21,-2026.5 299.21,-2030 299.21,-2023"/>
</g>
<!-- node_2c2a55f7 -->
<g id="node88" class="node">
<title>node_2c2a55f7</title>
<path fill="#6db33f" stroke="black" d="M744.5,-2089.5C744.5,-2089.5 451.5,-2089.5 451.5,-2089.5 445.5,-2089.5 439.5,-2083.5 439.5,-2077.5 439.5,-2077.5 439.5,-2065.5 439.5,-2065.5 439.5,-2059.5 445.5,-2053.5 451.5,-2053.5 451.5,-2053.5 744.5,-2053.5 744.5,-2053.5 750.5,-2053.5 756.5,-2059.5 756.5,-2065.5 756.5,-2065.5 756.5,-2077.5 756.5,-2077.5 756.5,-2083.5 750.5,-2089.5 744.5,-2089.5"/>
<text text-anchor="middle" x="598" y="-2067.8" font-family="Times,serif" font-size="14.00">106: compute_averaged_embedding_dist()</text>
</g>
<!-- node_a40fd6f1&#45;&gt;node_2c2a55f7 -->
<g id="edge91" class="edge">
<title>node_a40fd6f1&#45;&gt;node_2c2a55f7</title>
<path fill="none" stroke="#e69f00" stroke-width="2" d="M289.19,-2044.5C360.64,-2044.5 449,-2044.5 449,-2044.5 449,-2044.5 449,-2045.38 449,-2045.38"/>
<polygon fill="#e69f00" stroke="#e69f00" stroke-width="2" points="445.5,-2043.34 449,-2053.34 452.5,-2043.34 445.5,-2043.34"/>
</g>
<!-- node_cd44d3bc -->
<g id="node89" class="node">
<title>node_cd44d3bc</title>
<path fill="#966f33" stroke="black" d="M372,-1990.5C372,-1990.5 28,-1990.5 28,-1990.5 22,-1990.5 16,-1984.5 16,-1978.5 16,-1978.5 16,-1966.5 16,-1966.5 16,-1960.5 22,-1954.5 28,-1954.5 28,-1954.5 372,-1954.5 372,-1954.5 378,-1954.5 384,-1960.5 384,-1966.5 384,-1966.5 384,-1978.5 384,-1978.5 384,-1984.5 378,-1990.5 372,-1990.5"/>
<text text-anchor="middle" x="200" y="-1968.8" font-family="Times,serif" font-size="14.00">164: compute_divergence_across_many_periods()</text>
</g>
<!-- node_ef325a03 -->
<g id="node90" class="node">
<title>node_ef325a03</title>
<path fill="#cccccc" stroke="black" d="M764,-1981.5C764,-1981.5 432,-1981.5 432,-1981.5 426,-1981.5 420,-1975.5 420,-1969.5 420,-1969.5 420,-1957.5 420,-1957.5 420,-1951.5 426,-1945.5 432,-1945.5 432,-1945.5 764,-1945.5 764,-1945.5 770,-1945.5 776,-1951.5 776,-1957.5 776,-1957.5 776,-1969.5 776,-1969.5 776,-1975.5 770,-1981.5 764,-1981.5"/>
<text text-anchor="middle" x="598" y="-1959.8" font-family="Times,serif" font-size="14.00">114: compute_divergence_from_cluster_labels()</text>
</g>
<!-- node_cd44d3bc&#45;&gt;node_ef325a03 -->
<g id="edge93" class="edge">
<title>node_cd44d3bc&#45;&gt;node_ef325a03</title>
<path fill="none" stroke="#f0e442" stroke-width="2" d="M384.15,-1968C384.15,-1968 409.9,-1968 409.9,-1968"/>
<polygon fill="#f0e442" stroke="#f0e442" stroke-width="2" points="409.9,-1971.5 419.9,-1968 409.9,-1964.5 409.9,-1971.5"/>
</g>
<!-- node_cbe93ad9 -->
<g id="node92" class="node">
<title>node_cbe93ad9</title>
<path fill="#6db33f" stroke="black" d="M726.5,-2035.5C726.5,-2035.5 469.5,-2035.5 469.5,-2035.5 463.5,-2035.5 457.5,-2029.5 457.5,-2023.5 457.5,-2023.5 457.5,-2011.5 457.5,-2011.5 457.5,-2005.5 463.5,-1999.5 469.5,-1999.5 469.5,-1999.5 726.5,-1999.5 726.5,-1999.5 732.5,-1999.5 738.5,-2005.5 738.5,-2011.5 738.5,-2011.5 738.5,-2023.5 738.5,-2023.5 738.5,-2029.5 732.5,-2035.5 726.5,-2035.5"/>
<text text-anchor="middle" x="598" y="-2013.8" font-family="Times,serif" font-size="14.00">141: detect_meaning_gain_and_loss()</text>
</g>
<!-- node_cd44d3bc&#45;&gt;node_cbe93ad9 -->
<g id="edge95" class="edge">
<title>node_cd44d3bc&#45;&gt;node_cbe93ad9</title>
<path fill="none" stroke="#f0e442" stroke-width="2" d="M353,-1990.54C353,-1998.25 353,-2005.5 353,-2005.5 353,-2005.5 447.26,-2005.5 447.26,-2005.5"/>
<polygon fill="#f0e442" stroke="#f0e442" stroke-width="2" points="447.26,-2009 457.26,-2005.5 447.26,-2002 447.26,-2009"/>
</g>
<!-- node_f7b18a04 -->
<g id="node91" class="node">
<title>node_f7b18a04</title>
<path fill="#6db33f" stroke="black" d="M985,-1981.5C985,-1981.5 866,-1981.5 866,-1981.5 860,-1981.5 854,-1975.5 854,-1969.5 854,-1969.5 854,-1957.5 854,-1957.5 854,-1951.5 860,-1945.5 866,-1945.5 866,-1945.5 985,-1945.5 985,-1945.5 991,-1945.5 997,-1951.5 997,-1957.5 997,-1957.5 997,-1969.5 997,-1969.5 997,-1975.5 991,-1981.5 985,-1981.5"/>
<text text-anchor="middle" x="925.5" y="-1959.8" font-family="Times,serif" font-size="14.00">85: compute_jsd()</text>
</g>
<!-- node_ef325a03&#45;&gt;node_f7b18a04 -->
<g id="edge97" class="edge">
<title>node_ef325a03&#45;&gt;node_f7b18a04</title>
<path fill="none" stroke="#009e73" stroke-width="2" d="M776.13,-1963.5C776.13,-1963.5 843.74,-1963.5 843.74,-1963.5"/>
<polygon fill="#009e73" stroke="#009e73" stroke-width="2" points="843.74,-1967 853.74,-1963.5 843.74,-1960 843.74,-1967"/>
</g>
</g>
</svg>
